<svg xmlns="http://www.w3.org/2000/svg" width="50.523" height="56.143" viewBox="0 0 50.523 56.143">
  <g id="calendar_1_" data-name="calendar (1)" transform="translate(-25.627 0)">
    <g id="Group_375" data-name="Group 375" transform="translate(26.449 4.493)">
      <path id="Path_12507" data-name="Path 12507" d="M78.714,367.719h-42.3a3.29,3.29,0,0,1-3.29-3.29v-4.576L82,350.971v13.458A3.29,3.29,0,0,1,78.714,367.719Z" transform="translate(-33.126 -316.979)" fill="#cdbfba"/>
      <path id="Path_12508" data-name="Path 12508" d="M69.765,88.428H36.421a3.3,3.3,0,0,1-3.3-3.3V44.273a3.3,3.3,0,0,1,3.3-3.3H78.709a3.3,3.3,0,0,1,3.3,3.3V76.189c0,.874-1.992,1.712-2.61,2.33l-7.3,7.3c-.618.618-1.456,2.61-2.33,2.61Z" transform="translate(-33.126 -40.977)" fill="#f9f3f1"/>
      <path id="Path_12509" data-name="Path 12509" d="M331.145,335.6h2.61a2.7,2.7,0,0,0,2.7-2.7v-5.49a2.7,2.7,0,0,1,2.7-2.7h5.49a2.7,2.7,0,0,0,2.7-2.7v1.335a3.3,3.3,0,0,1-.965,2.33l-8.959,8.959a3.3,3.3,0,0,1-2.33.965h-3.945Z" transform="translate(-298.466 -288.148)" fill="#efe2dd"/>
      <path id="Path_12510" data-name="Path 12510" d="M82.007,44.264v8.463H33.13V44.264a3.29,3.29,0,0,1,3.29-3.29h42.3A3.29,3.29,0,0,1,82.007,44.264Z" transform="translate(-33.13 -40.974)" fill="#fece85"/>
      <g id="Group_370" data-name="Group 370" transform="translate(5.197)">
        <g id="Group_368" data-name="Group 368">
          <path id="Path_12511" data-name="Path 12511" d="M84.635,46.715H83.021a2.5,2.5,0,0,1-2.5-2.5V40.973h1.645v3.241a.857.857,0,0,0,.856.855c.454,0,2.068,1.645,1.614,1.645Z" transform="translate(-80.52 -40.973)" fill="#fdb441"/>
        </g>
        <g id="Group_369" data-name="Group 369" transform="translate(29.876)">
          <path id="Path_12512" data-name="Path 12512" d="M357.095,46.715H355.48a2.5,2.5,0,0,1-2.5-2.5V40.973h1.645v3.241a.856.856,0,0,0,.855.855,2.877,2.877,0,0,1,1.615,1.645Z" transform="translate(-352.98 -40.973)" fill="#fdb441"/>
        </g>
      </g>
      <g id="Group_374" data-name="Group 374" transform="translate(4.934 16.686)">
        <g id="Group_371" data-name="Group 371">
          <path id="Path_12513" data-name="Path 12513" d="M82.825,198.625H78.909a.783.783,0,0,1-.783-.783v-3.916a.783.783,0,0,1,.783-.783h3.916a.783.783,0,0,1,.783.783v3.916A.783.783,0,0,1,82.825,198.625Z" transform="translate(-78.126 -193.142)" fill="#fedba6"/>
          <path id="Path_12514" data-name="Path 12514" d="M184.741,198.625h-3.916a.783.783,0,0,1-.783-.783v-3.916a.783.783,0,0,1,.783-.783h3.916a.783.783,0,0,1,.783.783v3.916A.783.783,0,0,1,184.741,198.625Z" transform="translate(-168.867 -193.142)" fill="#fedba6"/>
          <path id="Path_12515" data-name="Path 12515" d="M286.657,198.625h-3.916a.783.783,0,0,1-.783-.783v-3.916a.783.783,0,0,1,.783-.783h3.916a.783.783,0,0,1,.783.783v3.916A.783.783,0,0,1,286.657,198.625Z" transform="translate(-259.607 -193.142)" fill="#fedba6"/>
          <path id="Path_12516" data-name="Path 12516" d="M388.573,198.625h-3.916a.783.783,0,0,1-.783-.783v-3.916a.783.783,0,0,1,.783-.783h3.916a.783.783,0,0,1,.783.783v3.916A.783.783,0,0,1,388.573,198.625Z" transform="translate(-350.348 -193.142)" fill="#fedba6"/>
        </g>
        <g id="Group_372" data-name="Group 372" transform="translate(0 10.173)">
          <path id="Path_12517" data-name="Path 12517" d="M82.825,291.4H78.909a.783.783,0,0,1-.783-.783V286.7a.783.783,0,0,1,.783-.783h3.916a.783.783,0,0,1,.783.783v3.916A.783.783,0,0,1,82.825,291.4Z" transform="translate(-78.126 -285.915)" fill="#fedba6"/>
          <path id="Path_12518" data-name="Path 12518" d="M184.741,291.4h-3.916a.783.783,0,0,1-.783-.783V286.7a.783.783,0,0,1,.783-.783h3.916a.783.783,0,0,1,.783.783v3.916A.783.783,0,0,1,184.741,291.4Z" transform="translate(-168.867 -285.915)" fill="#fedba6"/>
          <path id="Path_12519" data-name="Path 12519" d="M286.657,291.4h-3.916a.783.783,0,0,1-.783-.783V286.7a.783.783,0,0,1,.783-.783h3.916a.783.783,0,0,1,.783.783v3.916A.783.783,0,0,1,286.657,291.4Z" transform="translate(-259.607 -285.915)" fill="#fedba6"/>
        </g>
        <path id="Path_12520" data-name="Path 12520" d="M388.573,293.625h-3.916a.783.783,0,0,1-.783-.783v-3.916a.783.783,0,0,1,.783-.783h3.916a.783.783,0,0,1,.783.783v3.916A.783.783,0,0,1,388.573,293.625Z" transform="translate(-350.348 -277.725)" fill="#fedba6"/>
        <g id="Group_373" data-name="Group 373" transform="translate(0 20.346)">
          <path id="Path_12521" data-name="Path 12521" d="M82.825,384.171H78.909a.783.783,0,0,1-.783-.783v-3.916a.783.783,0,0,1,.783-.783h3.916a.783.783,0,0,1,.783.783v3.916A.783.783,0,0,1,82.825,384.171Z" transform="translate(-78.126 -378.688)" fill="#fedba6"/>
          <path id="Path_12522" data-name="Path 12522" d="M184.741,384.171h-3.916a.783.783,0,0,1-.783-.783v-3.916a.783.783,0,0,1,.783-.783h3.916a.783.783,0,0,1,.783.783v3.916A.783.783,0,0,1,184.741,384.171Z" transform="translate(-168.867 -378.688)" fill="#fedba6"/>
          <path id="Path_12523" data-name="Path 12523" d="M286.657,384.171h-3.916a.783.783,0,0,1-.783-.783v-3.916a.783.783,0,0,1,.783-.783h3.916a.783.783,0,0,1,.783.783v3.916A.783.783,0,0,1,286.657,384.171Z" transform="translate(-259.607 -378.688)" fill="#fedba6"/>
        </g>
      </g>
    </g>
    <path id="Path_12524" data-name="Path 12524" d="M65.693,27.573h3.916a1.607,1.607,0,0,0,1.606-1.606V22.051a1.607,1.607,0,0,0-1.606-1.606H65.693a1.607,1.607,0,0,0-1.606,1.606v3.916A1.607,1.607,0,0,0,65.693,27.573Zm.039-5.483H69.57v3.838H65.732Zm-.039,15.9h3.916a1.607,1.607,0,0,0,1.606-1.606V32.468a1.607,1.607,0,0,0-1.606-1.606H65.693a1.607,1.607,0,0,0-1.606,1.606v3.916A1.607,1.607,0,0,0,65.693,37.99Zm.039-5.483H69.57v3.838H65.732ZM54.518,27.573h3.916a1.607,1.607,0,0,0,1.606-1.606V22.051a1.607,1.607,0,0,0-1.606-1.606H54.518a1.607,1.607,0,0,0-1.606,1.606v3.916A1.607,1.607,0,0,0,54.518,27.573Zm.039-5.483h3.838v3.838H54.557Zm-18.474,18.7H32.167A1.608,1.608,0,0,0,30.561,42.4v3.916a1.608,1.608,0,0,0,1.606,1.606h3.916a1.608,1.608,0,0,0,1.606-1.606V42.4a1.607,1.607,0,0,0-1.606-1.606Zm-.039,5.483H32.206V42.436h3.838Zm.039-25.828H32.167a1.607,1.607,0,0,0-1.606,1.606v3.916a1.608,1.608,0,0,0,1.606,1.606h3.916a1.608,1.608,0,0,0,1.606-1.606V22.051a1.607,1.607,0,0,0-1.606-1.606Zm-.039,5.483H32.206V22.09h3.838ZM54.518,37.746h3.916A1.607,1.607,0,0,0,60.04,36.14V32.224a1.607,1.607,0,0,0-1.606-1.606H54.518a1.607,1.607,0,0,0-1.606,1.606V36.14A1.607,1.607,0,0,0,54.518,37.746Zm.039-5.483h3.838V36.1H54.557Zm17.475-28.5H68.516V2.5a2.5,2.5,0,0,0-2.5-2.5h-.378a2.5,2.5,0,0,0-2.5,2.5V3.758H38.64V2.5a2.5,2.5,0,0,0-2.5-2.5h-.378a2.5,2.5,0,0,0-2.5,2.5V3.758H29.744a4.122,4.122,0,0,0-4.117,4.117V52.031a4.117,4.117,0,0,0,4.112,4.112h42.3a4.117,4.117,0,0,0,4.112-4.112V7.876a4.122,4.122,0,0,0-4.118-4.117ZM64.781,2.5a.857.857,0,0,1,.856-.856h.378a.857.857,0,0,1,.856.856V3.758h-2.09Zm-29.876,0a.857.857,0,0,1,.856-.856h.378A.857.857,0,0,1,37,2.5V3.758h-2.09V2.5Zm39.6,49.53A2.47,2.47,0,0,1,72.037,54.5h-42.3a2.47,2.47,0,0,1-2.467-2.467v-.005a4.1,4.1,0,0,0,2.473.828H63.088A4.09,4.09,0,0,0,66,51.647l8.5-8.5ZM65.161,50.16a3.517,3.517,0,0,0,.1-.829v-5.49a1.88,1.88,0,0,1,1.877-1.877h5.49a3.518,3.518,0,0,0,.829-.1ZM74.5,15.511H39.462a.822.822,0,1,0,0,1.645H74.5V38.441a1.88,1.88,0,0,1-1.877,1.877h-5.49a3.526,3.526,0,0,0-3.522,3.522v5.49a1.88,1.88,0,0,1-1.877,1.877H29.744a2.476,2.476,0,0,1-2.473-2.473V17.156h8.9a.822.822,0,1,0,0-1.645h-8.9V7.876A2.476,2.476,0,0,1,29.744,5.4h3.516V7.821a2.5,2.5,0,0,0,2.5,2.5.822.822,0,0,0,0-1.645.857.857,0,0,1-.856-.856V5.4H63.136V7.821a2.5,2.5,0,0,0,2.5,2.5.822.822,0,1,0,0-1.645.857.857,0,0,1-.856-.856V5.4h7.251A2.476,2.476,0,0,1,74.5,7.876ZM36.083,30.618H32.167a1.607,1.607,0,0,0-1.606,1.606V36.14a1.607,1.607,0,0,0,1.606,1.606h3.916a1.608,1.608,0,0,0,1.606-1.606V32.224A1.607,1.607,0,0,0,36.083,30.618ZM36.044,36.1H32.206V32.263h3.838Zm7.3-8.528h3.916a1.608,1.608,0,0,0,1.606-1.606V22.051a1.608,1.608,0,0,0-1.606-1.606H43.342a1.607,1.607,0,0,0-1.606,1.606v3.916A1.607,1.607,0,0,0,43.342,27.573Zm.039-5.483h3.838v3.838H43.382ZM54.556,46.274a.822.822,0,0,0-1.644.039,1.607,1.607,0,0,0,1.606,1.606h3.916a1.607,1.607,0,0,0,1.606-1.606V42.4a1.607,1.607,0,0,0-1.606-1.606H54.518A1.607,1.607,0,0,0,52.912,42.4v1.129a.822.822,0,1,0,1.645,0v-1.09h3.838v3.838ZM43.342,37.746h3.916a1.608,1.608,0,0,0,1.606-1.606V32.224a1.608,1.608,0,0,0-1.606-1.606H43.342a1.607,1.607,0,0,0-1.606,1.606V36.14A1.607,1.607,0,0,0,43.342,37.746Zm.039-5.483h3.838V36.1H43.382Zm-.039,15.656h3.916a1.608,1.608,0,0,0,1.606-1.606V42.4a1.608,1.608,0,0,0-1.606-1.606H43.342A1.607,1.607,0,0,0,41.737,42.4v3.916A1.607,1.607,0,0,0,43.342,47.919Zm.039-5.483h3.838v3.838H43.382Z" transform="translate(0)"/>
  </g>
</svg>
