<svg xmlns="http://www.w3.org/2000/svg" width="26.575" height="26.574" viewBox="0 0 26.575 26.574">
  <g id="call" transform="translate(-1 -1.018)">
    <g id="Group_189" data-name="Group 189" transform="translate(1.447 1.463)">
      <path id="Path_6210" data-name="Path 6210" d="M33.125,29.524l-1.351,2.25a2.79,2.79,0,0,1-.921.939,2.576,2.576,0,0,1-.7.306c-2.241.616-7.188.744-15.115-7.188S7.24,12.957,7.856,10.716a2.576,2.576,0,0,1,.306-.7A2.79,2.79,0,0,1,9.1,9.1l2.25-1.351a1.122,1.122,0,0,1,1.51.341l1.953,2.923,1.634,2.453a1.131,1.131,0,0,1-.244,1.51l-.54.421L14.189,16.54a1.127,1.127,0,0,0-.3,1.426,18.425,18.425,0,0,0,3.924,5.093,18.26,18.26,0,0,0,5.093,3.924,1.127,1.127,0,0,0,1.426-.3l1.143-1.475.421-.54a1.131,1.131,0,0,1,1.51-.244l2.529,1.687,2.848,1.9A1.122,1.122,0,0,1,33.125,29.524Z" transform="translate(-7.601 -7.589)" fill="#558b30"/>
      <path id="Path_6211" data-name="Path 6211" d="M32.24,46.59l-1.351,2.25c-.013.018-.022.035-.035.053a2.575,2.575,0,0,1-.7.306c-2.241.616-7.188.744-15.115-7.188S7.24,29.137,7.856,26.9a2.576,2.576,0,0,1,.306-.7c.018-.013.035-.022.053-.035l2.25-1.351a1.122,1.122,0,0,1,1.51.341l1.953,2.923,1.634,2.453a1.139,1.139,0,0,1-.244,1.51l-1.484,1.151-.531.412a1.124,1.124,0,0,0-.3,1.426,18.425,18.425,0,0,0,3.924,5.093,18.26,18.26,0,0,0,5.093,3.924,1.124,1.124,0,0,0,1.426-.3l.412-.531,1.151-1.484a1.139,1.139,0,0,1,1.51-.244l2.529,1.687,2.848,1.9A1.122,1.122,0,0,1,32.24,46.59Z" transform="translate(-7.601 -23.77)" fill="#8bc34a"/>
    </g>
    <g id="Group_190" data-name="Group 190" transform="translate(1 1.018)">
      <path id="Path_6212" data-name="Path 6212" d="M22.04,27.591a7.846,7.846,0,0,0,2.081-.272A3.17,3.17,0,0,0,26,25.873l1.352-2.248a1.562,1.562,0,0,0-.473-2.106L21.5,17.931a1.57,1.57,0,0,0-2.1.341L17.83,20.287a.67.67,0,0,1-.859.181l-.3-.164a18.012,18.012,0,0,1-4.694-3.687,18.085,18.085,0,0,1-3.687-4.694l-.163-.3a.671.671,0,0,1,.177-.862L10.319,9.2a1.571,1.571,0,0,0,.342-2.1L7.074,1.715a1.562,1.562,0,0,0-2.105-.474L2.719,2.593A3.173,3.173,0,0,0,1.272,4.47c-.81,2.951-.2,8.045,7.3,15.548C14.543,25.986,18.986,27.591,22.04,27.591ZM2.127,4.7A2.292,2.292,0,0,1,3.175,3.352L5.424,2a.678.678,0,0,1,.914.205L8.286,5.134,9.922,7.587a.682.682,0,0,1-.148.912L7.76,10.065a1.55,1.55,0,0,0-.411,1.989l.16.291a18.787,18.787,0,0,0,3.839,4.9,18.806,18.806,0,0,0,4.9,3.838l.291.16a1.55,1.55,0,0,0,1.989-.411l1.566-2.014A.682.682,0,0,1,21,18.67l5.378,3.587a.677.677,0,0,1,.205.914L25.239,25.42a2.289,2.289,0,0,1-1.351,1.047c-2.724.748-7.484.128-14.687-7.075S1.379,7.429,2.127,4.7Z" transform="translate(-1 -1.018)"/>
      <path id="Path_6213" data-name="Path 6213" d="M283.071,70.21a7.537,7.537,0,0,1,7.529,7.529.443.443,0,1,0,.886,0,8.424,8.424,0,0,0-8.414-8.414.443.443,0,1,0,0,.886Z" transform="translate(-268.012 -65.779)"/>
      <path id="Path_6214" data-name="Path 6214" d="M283.071,121.41a4.877,4.877,0,0,1,4.871,4.871.443.443,0,0,0,.886,0,5.764,5.764,0,0,0-5.757-5.757.443.443,0,1,0,0,.886Z" transform="translate(-268.012 -114.322)"/>
      <path id="Path_6215" data-name="Path 6215" d="M283.071,172.61a2.217,2.217,0,0,1,2.214,2.214.443.443,0,1,0,.886,0,3.1,3.1,0,0,0-3.1-3.1.443.443,0,1,0,0,.886Z" transform="translate(-268.012 -162.865)"/>
    </g>
  </g>
</svg>
