<svg id="docs" xmlns="http://www.w3.org/2000/svg" width="60.287" height="73.125" viewBox="0 0 60.287 73.125">
  <path id="Path_52" data-name="Path 52" d="M160.032,74.829v-46.7L139.4,10.449H116.446c-3.712,0-6.72,2.579-6.72,5.761V74.829c0,3.181,3.009,5.76,6.72,5.76h36.865c3.711,0,6.72-2.579,6.72-5.76Zm0,0" transform="translate(-101.237 -8.957)" fill="#9fbad4"/>
  <path id="Path_53" data-name="Path 53" d="M293.623,28.131h11.921L287.863,10.449V22.371a5.76,5.76,0,0,0,5.76,5.76Zm0,0" transform="translate(-246.75 -8.957)" fill="#10bafc"/>
  <path id="Path_54" data-name="Path 54" d="M59.85,18.118,42.168.436A1.493,1.493,0,0,0,41.113,0H7.253A7.261,7.261,0,0,0,0,7.253V65.872a7.261,7.261,0,0,0,7.253,7.253H53.034a7.261,7.261,0,0,0,7.253-7.253v-46.7a1.492,1.492,0,0,0-.437-1.056ZM42.606,5.1,55.192,17.681H46.874a4.268,4.268,0,0,1-4.268-4.268ZM53.034,70.14H7.253a4.273,4.273,0,0,1-4.268-4.268V7.253A4.273,4.273,0,0,1,7.253,2.984H39.621V13.413a7.252,7.252,0,0,0,7.253,7.253H57.3V65.872a4.273,4.273,0,0,1-4.268,4.268Zm0,0" transform="translate(0 0.001)" fill="#3a3a3a"/>
  <path id="Path_55" data-name="Path 55" d="M217.183,351.492h-.668a1.492,1.492,0,0,0,0,2.985h.668a1.492,1.492,0,1,0,0-2.985Zm0,0" transform="translate(-184.313 -301.291)" fill="#3a3a3a"/>
  <path id="Path_56" data-name="Path 56" d="M95.714,351.492h-14.5a1.492,1.492,0,1,0,0,2.985h14.5a1.492,1.492,0,0,0,0-2.985Zm0,0" transform="translate(-68.34 -301.291)" fill="#3a3a3a"/>
  <path id="Path_57" data-name="Path 57" d="M115.748,303.746H81.219a1.492,1.492,0,0,0,0,2.985h34.529a1.492,1.492,0,0,0,0-2.985Zm0,0" transform="translate(-68.34 -260.364)" fill="#3a3a3a"/>
  <path id="Path_58" data-name="Path 58" d="M115.748,256H81.219a1.492,1.492,0,1,0,0,2.985h34.529a1.492,1.492,0,0,0,0-2.985Zm0,0" transform="translate(-68.34 -219.437)" fill="#3a3a3a"/>
  <path id="Path_59" data-name="Path 59" d="M115.748,208.254H81.219a1.492,1.492,0,0,0,0,2.985h34.529a1.492,1.492,0,0,0,0-2.985Zm0,0" transform="translate(-68.34 -178.511)" fill="#3a3a3a"/>
</svg>
