<svg xmlns="http://www.w3.org/2000/svg" width="34" height="41.846" viewBox="0 0 34 41.846">
  <g id="document_2_" data-name="document (2)" transform="translate(-48)">
    <g id="Group_200" data-name="Group 200" transform="translate(71.538 31.385)" opacity="0.4">
      <path id="Path_6249" data-name="Path 6249" d="M336,384h10.462L336,394.462Z" transform="translate(-336 -384)" fill="#dedede"/>
    </g>
    <path id="Path_6250" data-name="Path 6250" d="M76.769,0H53.231A5.231,5.231,0,0,0,48,5.231V36.615a5.231,5.231,0,0,0,5.231,5.231H68.923V28.769H82V5.231A5.231,5.231,0,0,0,76.769,0ZM74.154,22.231H55.846a1.308,1.308,0,1,1,0-2.615H74.154a1.308,1.308,0,1,1,0,2.615Zm0-5.231H55.846a1.308,1.308,0,1,1,0-2.615H74.154a1.308,1.308,0,1,1,0,2.615Zm0-5.231H55.846a1.308,1.308,0,1,1,0-2.615H74.154a1.308,1.308,0,1,1,0,2.615Z" fill="#dedede"/>
  </g>
</svg>
