<svg id="drops" xmlns="http://www.w3.org/2000/svg" width="63.304" height="77.171" viewBox="0 0 63.304 77.171">
  <g id="Group_56" data-name="Group 56" transform="translate(1.507 1.507)">
    <path id="Path_32" data-name="Path 32" d="M146.072,356.525c0,4.161-3.375,7.988-7.536,7.988S131,360.686,131,356.525,138.536,341,138.536,341,146.072,352.363,146.072,356.525Zm0,0" transform="translate(-112.762 -291.11)" fill="#c8f5ff"/>
    <path id="Path_33" data-name="Path 33" d="M28.087,194.087a9.043,9.043,0,1,1-18.087,0c0-5,9.043-18.087,9.043-18.087S28.087,189.092,28.087,194.087Zm0,0" transform="translate(-10 -150.98)" fill="#c8f5ff"/>
    <path id="Path_34" data-name="Path 34" d="M223.159,45.119a16.58,16.58,0,0,1-33.159,0C190,35.962,206.58,10,206.58,10S223.159,35.962,223.159,45.119Zm0,0" transform="translate(-162.87 -10)" fill="#c8f5ff"/>
  </g>
  <path id="Path_35" data-name="Path 35" d="M303.565,234.507a1.507,1.507,0,0,0-3.014,0,9.053,9.053,0,0,1-9.043,9.043,1.507,1.507,0,0,0,0,3.014A12.071,12.071,0,0,0,303.565,234.507Zm0,0" transform="translate(-246.29 -197.881)" fill="#3a3a3a"/>
  <path id="Path_36" data-name="Path 36" d="M127.787,336.674c-.8,1.2-7.787,11.871-7.787,16.358,0,5.147,4.141,9.5,9.043,9.5s9.043-4.349,9.043-9.5c0-4.486-6.99-15.156-7.787-16.358a1.508,1.508,0,0,0-2.513,0Zm7.285,16.358c0,3.453-2.817,6.481-6.029,6.481s-6.029-3.029-6.029-6.481c0-2.323,3.311-8.385,6.029-12.737C131.762,344.647,135.072,350.709,135.072,353.032Zm0,0" transform="translate(-101.913 -285.357)" fill="#3a3a3a"/>
  <path id="Path_37" data-name="Path 37" d="M10.551,166a1.507,1.507,0,0,0-1.24.651C8.358,168.03,0,180.283,0,185.594a10.551,10.551,0,1,0,21.1,0c0-5.311-8.358-17.564-9.311-18.944a1.507,1.507,0,0,0-1.24-.651Zm0,27.13a7.545,7.545,0,0,1-7.536-7.536c0-2.915,4.215-10.315,7.536-15.384,3.321,5.069,7.536,12.468,7.536,15.384A7.545,7.545,0,0,1,10.551,193.13Zm0,0" transform="translate(0 -140.98)" fill="#3a3a3a"/>
  <path id="Path_38" data-name="Path 38" d="M183.014,224.507A1.507,1.507,0,1,1,181.507,223,1.507,1.507,0,0,1,183.014,224.507Zm0,0" transform="translate(-152.87 -189.389)"/>
  <path id="Path_39" data-name="Path 39" d="M202.823.7a1.508,1.508,0,0,0-2.541,0c-.434.68-10.679,16.777-14.956,28.125a1.507,1.507,0,0,0,2.821,1.063c3.294-8.741,10.491-20.795,13.41-25.535,5.153,8.333,15.068,25.721,15.068,32.277a15.075,15.075,0,0,1-29.585,4.083,1.507,1.507,0,1,0-2.9.815,18.089,18.089,0,0,0,35.5-4.9c0-8.308-12.517-29.208-16.816-35.93Zm0,0" transform="translate(-156.335 0)" fill="#3a3a3a"/>
</svg>
