<svg xmlns="http://www.w3.org/2000/svg" width="37.02" height="37.02" viewBox="0 0 37.02 37.02">
  <g id="facebook_3_" data-name="facebook (3)" transform="translate(0)">
    <path id="Path_12433" data-name="Path 12433" d="M34.976,0H2.041A2.043,2.043,0,0,0,0,2.043V34.978A2.043,2.043,0,0,0,2.043,37.02H34.976a2.043,2.043,0,0,0,2.043-2.043h0V2.042A2.043,2.043,0,0,0,34.976,0Zm0,0" fill="#4267b2"/>
    <path id="Path_12434" data-name="Path 12434" d="M217.593,108.753V94.437h4.826l.723-5.6h-5.549V85.264c0-1.619.449-2.722,2.77-2.722H223.3v-5a39.543,39.543,0,0,0-4.311-.22c-4.266,0-7.186,2.6-7.186,7.385v4.124H207v5.6h4.808v14.316Zm0,0" transform="translate(-192.033 -71.733)" fill="#fff"/>
  </g>
</svg>
