<svg xmlns="http://www.w3.org/2000/svg" width="72.786" height="73.125" viewBox="0 0 72.786 73.125">
  <g id="garbage" transform="translate(0)">
    <path id="Path_40" data-name="Path 40" d="M97.79,170h-38.9a6.3,6.3,0,0,1-6.266-6.985l3.365-30.957A22.484,22.484,0,0,1,76.7,112.06c.542-.039,1.091-.06,1.642-.06s1.1.021,1.642.06a22.483,22.483,0,0,1,20.71,19.994l3.365,30.957A6.3,6.3,0,0,1,97.79,170Z" transform="translate(-48.408 -98.131)" fill="#e3e4e2"/>
    <path id="Path_41" data-name="Path 41" d="M159.739,48.388,155.323,32h18.912L169.5,48.388Z" transform="translate(-134.954 -30.739)" fill="#e3e4e2"/>
    <path id="Path_42" data-name="Path 42" d="M271.874,277.821H250.5a6.3,6.3,0,0,1-6.272-6.931L245.94,253.8a15.325,15.325,0,0,1,30.5,0l1.708,17.093a6.3,6.3,0,0,1-6.272,6.931Z" transform="translate(-209.824 -205.956)" fill="#0093b9"/>
    <path id="Path_43" data-name="Path 43" d="M315.214,195.247,312,184h12.608l-3.214,11.247Z" transform="translate(-266.939 -158.785)" fill="#0093b9"/>
    <path id="Path_44" data-name="Path 44" d="M203.214,283.247,200,272h12.608l-3.214,11.247Z" transform="translate(-172.59 -232.916)" fill="#56c3c1"/>
    <path id="Path_45" data-name="Path 45" d="M172.618,351.955h-15.5a6.3,6.3,0,0,1-6.227-7.287l.862-5.459a13.279,13.279,0,0,1,26.234,0l.862,5.459a6.3,6.3,0,0,1-6.227,7.287Z" transform="translate(-131.152 -280.091)" fill="#56c3c1"/>
    <path id="Path_46" data-name="Path 46" d="M172.491,285.1a14.521,14.521,0,0,0-9.182-11.314l2.336-8.176A1.261,1.261,0,0,0,164.433,264H151.825a1.261,1.261,0,0,0-1.212,1.607l2.336,8.176a14.521,14.521,0,0,0-9.182,11.314l-.862,5.459a7.565,7.565,0,0,0,7.472,8.744h15.5a7.565,7.565,0,0,0,7.472-8.744ZM153.5,266.522h9.265l-1.877,6.571a14.358,14.358,0,0,0-5.51,0Zm16.218,28.492a5.037,5.037,0,0,1-3.834,1.767h-15.5a5.043,5.043,0,0,1-4.982-5.829l.862-5.46a12.015,12.015,0,0,1,9.207-9.845l-4.665,6.532,2.052,1.466,4.017-5.623v6.152h2.522V278.02l4.017,5.624,2.052-1.466-4.665-6.532A12.015,12.015,0,0,1,170,285.491l.862,5.46a5.036,5.036,0,0,1-1.148,4.063Z" transform="translate(-124.415 -226.177)" fill="#3a3a3a"/>
    <path id="Path_47" data-name="Path 47" d="M317.445,199.761a16.59,16.59,0,0,0-11.289-14.1l2.3-8.057A1.261,1.261,0,0,0,307.246,176H294.638a1.261,1.261,0,0,0-1.212,1.607l2.3,8.057a16.534,16.534,0,0,0-4.338,2.187l1.453,2.061a13.972,13.972,0,0,1,5.077-2.238l-5.5,6.417,1.914,1.641,5.347-6.238v7.939H302.2v-7.939l5.347,6.238,1.914-1.641-5.5-6.418a14.012,14.012,0,0,1,10.974,12.338l1.709,17.092a5.043,5.043,0,0,1-5.019,5.545H299.681v2.522h11.946a7.565,7.565,0,0,0,7.527-8.317ZM296.31,178.522h9.265l-1.868,6.539a16.49,16.49,0,0,0-5.529,0Z" transform="translate(-249.577 -152.045)" fill="#3a3a3a"/>
    <path id="Path_48" data-name="Path 48" d="M410.766,217a21.637,21.637,0,0,0-5.141-3.458l-1.093,2.272a19.124,19.124,0,0,1,10.645,14.583l2.5-.348A21.658,21.658,0,0,0,410.766,217Z" transform="translate(-344.888 -183.667)" fill="#3a3a3a"/>
    <path id="Path_49" data-name="Path 49" d="M48.395,92.928a5.05,5.05,0,0,1-1.26-3.913L50.5,58.059A21.188,21.188,0,0,1,68.886,39.3l-7.109,9.14,1.99,1.548,6.569-8.447V53h2.522V41.543l6.569,8.447,1.99-1.548-7.106-9.136A21.331,21.331,0,0,1,87.07,45.825L88.907,44.1a23.832,23.832,0,0,0-10.243-6.4l3.494-12.081A1.261,1.261,0,0,0,80.947,24H62.036a1.261,1.261,0,0,0-1.217,1.589L64.112,37.81a23.71,23.71,0,0,0-16.12,19.977L44.628,88.743a7.565,7.565,0,0,0,7.52,8.382h6.842V94.6H52.148a5.05,5.05,0,0,1-3.754-1.675ZM63.681,26.522H79.271L76.22,37.068a23.577,23.577,0,0,0-4.622-.46,23.9,23.9,0,0,0-5.054.538Z" transform="translate(-41.667 -24)" fill="#3a3a3a"/>
    <path id="Path_50" data-name="Path 50" d="M32.864,128.107a26.349,26.349,0,0,1,10.473-18.281l-1.5-2.026a28.878,28.878,0,0,0-11.479,20.035L29.6,134.8l2.506.272Z" transform="translate(-29.044 -94.593)" fill="#3a3a3a"/>
    <path id="Path_51" data-name="Path 51" d="M0,0H2.536V2.522H0Z" transform="translate(0 45.251) rotate(-83.799)" fill="#3a3a3a"/>
  </g>
</svg>
