<svg xmlns="http://www.w3.org/2000/svg" width="35.582" height="28.278" viewBox="0 0 35.582 28.278">
  <g id="Group_1676" data-name="Group 1676" transform="translate(-170.43 -1508.318)">
    <g id="Group_115" data-name="Group 115" transform="translate(171.023 1508.318)">
      <path id="Path_6050" data-name="Path 6050" d="M94.232,267.974,92.107,270l-7.371,2.5h-9.5l-6.849-3.008-1.46-2.081.024-1.131,4.744-2.827,2.372.565,3.558,1.131h4.744l8.9-.565Z" transform="translate(-62.805 -249.321)" fill="#cfd8dc"/>
      <g id="Group_112" data-name="Group 112" transform="translate(4.123 19.218)">
        <ellipse id="Ellipse_2" data-name="Ellipse 2" cx="4.157" cy="3.957" rx="4.157" ry="3.957" fill="#283593"/>
        <ellipse id="Ellipse_3" data-name="Ellipse 3" cx="4.157" cy="3.957" rx="4.157" ry="3.957" transform="translate(17.805)" fill="#283593"/>
      </g>
      <g id="Group_113" data-name="Group 113" transform="translate(4.151 19.218)">
        <ellipse id="Ellipse_4" data-name="Ellipse 4" cx="3.265" cy="3.957" rx="3.265" ry="3.957" fill="#3f51b5"/>
        <ellipse id="Ellipse_5" data-name="Ellipse 5" cx="3.272" cy="3.957" rx="3.272" ry="3.957" transform="translate(17.791)" fill="#3f51b5"/>
      </g>
      <ellipse id="Ellipse_6" data-name="Ellipse 6" cx="1.779" cy="1.696" rx="1.779" ry="1.696" transform="translate(24.307 21.48)" fill="#f4f4f4"/>
      <g id="Group_114" data-name="Group 114" transform="translate(14.809 3.954)">
        <path id="Path_6051" data-name="Path 6051" d="M221.244,365.851h3.564a.58.58,0,0,1,.593.565v2.261a.58.58,0,0,1-.593.565h-3.564a.58.58,0,0,1-.593-.565v-2.261A.58.58,0,0,1,221.244,365.851Z" transform="translate(-220.651 -348.89)" fill="#607d8b"/>
        <path id="Path_6052" data-name="Path 6052" d="M284.16,127.482l.6-.565v11.872l-.6.565-1.186,1.131h-2.36v-13Z" transform="translate(-276.447 -125.786)" fill="#607d8b"/>
        <path id="Path_6053" data-name="Path 6053" d="M393.353,112.112h-1.767l-.854-1.634a1.2,1.2,0,0,0-1.062-.628h1.767a1.2,1.2,0,0,1,1.062.628Z" transform="translate(-377.924 -109.851)" fill="#607d8b"/>
        <path id="Path_6054" data-name="Path 6054" d="M396.964,215.077v5.088h-1.186l-.581-.554v-4.534c0-2.827-3.564-2.827-3.564-2.827H393.4S396.964,212.25,396.964,215.077Z" transform="translate(-379.751 -205.466)" fill="#607d8b"/>
      </g>
      <path id="Path_6055" data-name="Path 6055" d="M339.376,119.462V124l-1.2-1.142h-5.936l-.593.565v-13a.581.581,0,0,1,.593-.565h3.44a1.2,1.2,0,0,1,1.061.628l.854,1.634h-2.384a.581.581,0,0,0-.593.565v3.392a.581.581,0,0,0,.593.565h.6S339.376,116.635,339.376,119.462Z" transform="translate(-309.121 -105.897)" fill="#cfd8dc"/>
      <path id="Path_6056" data-name="Path 6056" d="M470.719,256.049v2.827a1.163,1.163,0,0,1-1.186,1.131h-1.186v-5.088h1.186A1.163,1.163,0,0,1,470.719,256.049Z" transform="translate(-436.324 -241.353)" fill="#607d8b"/>
      <path id="Path_6057" data-name="Path 6057" d="M380.925,147.643v3.692a2.553,2.553,0,0,0-1.773-2.476,5.515,5.515,0,0,0-1.791-.351h-2.372a.581.581,0,0,1-.593-.565V144.55a.581.581,0,0,1,.593-.565h4.151l1.66,3.155A1.148,1.148,0,0,1,380.925,147.643Z" transform="translate(-348.902 -137.77)" fill="#00838f"/>
      <path id="Path_6058" data-name="Path 6058" d="M379.152,147.643v1.216a5.515,5.515,0,0,0-1.791-.351h-2.372a.581.581,0,0,1-.593-.565V144.55a.581.581,0,0,1,.593-.565h2.378l1.66,3.155A1.149,1.149,0,0,1,379.152,147.643Z" transform="translate(-348.902 -137.77)" fill="#00bcd4"/>
      <path id="Path_6059" data-name="Path 6059" d="M76.977,53.562l1.187-1.787,11.109-1.593a1.248,1.248,0,0,1,.962.293,1.127,1.127,0,0,1,.393.886v2.2l.012,1.131H75.814Z" transform="translate(-71.07 -50.173)" fill="#8bc34a"/>
      <path id="Path_6060" data-name="Path 6060" d="M27.11,101.317H12.487a1.187,1.187,0,0,0-1.1.712L7.665,111a1.612,1.612,0,0,0,.243,1.6l3.179,3.986,1.607-1.532a.614.614,0,0,1,.415-.164h5.444a.629.629,0,0,1,.421.164l1.435,1.368a.629.629,0,0,0,.421.164H27.7v-14.7A.582.582,0,0,0,27.11,101.317Z" transform="translate(-7.553 -97.929)" fill="#4caf50"/>
      <path id="Path_6061" data-name="Path 6061" d="M15.831,101.317l-4.1,8.9a1.255,1.255,0,0,0-.071.294l-.575,6.066L7.909,112.6a1.613,1.613,0,0,1-.243-1.6l3.718-8.967a1.187,1.187,0,0,1,1.1-.712Z" transform="translate(-7.553 -97.929)" fill="#8bc34a"/>
      <ellipse id="Ellipse_7" data-name="Ellipse 7" cx="1.186" cy="1.131" rx="1.186" ry="1.131" transform="translate(7.688 10.738)" fill="#fff"/>
      <ellipse id="Ellipse_8" data-name="Ellipse 8" cx="1.779" cy="1.696" rx="1.779" ry="1.696" transform="translate(6.501 21.48)" fill="#f4f4f4"/>
    </g>
    <g id="Group_116" data-name="Group 116" transform="translate(170.43 1508.318)">
      <path id="Path_6062" data-name="Path 6062" d="M96.968,366.851a2.264,2.264,0,1,0,2.373,2.261A2.319,2.319,0,0,0,96.968,366.851Zm0,3.392a1.132,1.132,0,1,1,1.188-1.131A1.159,1.159,0,0,1,96.968,370.243Z" transform="translate(-88.093 -345.368)"/>
      <path id="Path_6063" data-name="Path 6063" d="M353.178,366.851a2.264,2.264,0,1,0,2.373,2.261A2.319,2.319,0,0,0,353.178,366.851Zm0,3.392a1.132,1.132,0,1,1,1.187-1.131A1.159,1.159,0,0,1,353.178,370.243Z" transform="translate(-326.497 -345.368)"/>
      <path id="Path_6064" data-name="Path 6064" d="M189.091,127.917a.58.58,0,0,0-.593.565v.565a.594.594,0,0,0,1.186,0v-.565A.58.58,0,0,0,189.091,127.917Z" transform="translate(-175.468 -122.264)"/>
      <path id="Path_6065" data-name="Path 6065" d="M189.091,170.584a.58.58,0,0,0-.593.565v7.915a.594.594,0,0,0,1.186,0v-7.915A.58.58,0,0,0,189.091,170.584Z" transform="translate(-175.468 -162.104)"/>
      <path id="Path_6066" data-name="Path 6066" d="M223.254,127.917a.58.58,0,0,0-.593.565v.565a.594.594,0,0,0,1.186,0v-.565A.58.58,0,0,0,223.254,127.917Z" transform="translate(-207.257 -122.264)"/>
      <path id="Path_6067" data-name="Path 6067" d="M223.254,170.584a.58.58,0,0,0-.593.565v7.915a.594.594,0,0,0,1.186,0v-7.915A.58.58,0,0,0,223.254,170.584Z" transform="translate(-207.257 -162.104)"/>
      <path id="Path_6068" data-name="Path 6068" d="M257.412,127.917a.58.58,0,0,0-.593.565v.565a.594.594,0,0,0,1.186,0v-.565A.58.58,0,0,0,257.412,127.917Z" transform="translate(-239.041 -122.264)"/>
      <path id="Path_6069" data-name="Path 6069" d="M257.412,170.584a.58.58,0,0,0-.593.565v7.915a.594.594,0,0,0,1.186,0v-7.915A.58.58,0,0,0,257.412,170.584Z" transform="translate(-239.041 -162.104)"/>
      <path id="Path_6070" data-name="Path 6070" d="M34.8,56.164h-.595V53.038a1.638,1.638,0,0,0-.188-.759l-1.651-3.145-.008-.016-.855-1.629a1.781,1.781,0,0,0-1.592-.937h-5.2a1.161,1.161,0,0,0-1.186,1.131v.565H22.338V47.118a1.119,1.119,0,0,0-.594-.974V44.352A1.743,1.743,0,0,0,21.1,43a1.8,1.8,0,0,0-1.394-.388L8.6,44.206a.6.6,0,0,0-.413.256L7.175,45.987H6.528a1.772,1.772,0,0,0-1.655,1.072L1.148,56.034a2.167,2.167,0,0,0,.331,2.141l3.171,3.977a.532.532,0,0,0,.039.045.571.571,0,0,0,.056.052.6.6,0,0,0,.318.131h0a.624.624,0,0,0,.064,0,.657.657,0,0,0,.069,0,.605.605,0,0,0,.332-.145h0l.018-.017.082-.078.784,1.117a4.359,4.359,0,0,0-.688,5.272,4.823,4.823,0,0,0,5.046,2.255,4.617,4.617,0,0,0,3.81-3.876h1.229A1.161,1.161,0,0,0,17,68.036h3.562a1.161,1.161,0,0,0,1.186-1.131h1.229A4.6,4.6,0,0,0,26.5,70.732,4.868,4.868,0,0,0,31.531,69a4.35,4.35,0,0,0,.142-5.095l1.595-1.519H34.8a1.741,1.741,0,0,0,1.779-1.7V57.86A1.741,1.741,0,0,0,34.8,56.164Zm-3.335-6.219,1.492,2.842a.539.539,0,0,1,.063.252v1.226a5.145,5.145,0,0,0-2.968-.928H27.68V49.945Zm-1.554-2.261a.594.594,0,0,1,.531.313l.43.818H27.68a1.161,1.161,0,0,0-1.187,1.131v3.392a1.161,1.161,0,0,0,1.187,1.131h2.374c.121,0,2.968.026,2.968,2.261v4.523h-.349l-1.607-1.531a.61.61,0,0,0-.419-.165H24.713V47.683h5.2Zm-6.388,1.7V60.452l-.84.8h-.348V49.379ZM14.869,61.251l-1.433-1.365a1.208,1.208,0,0,0-.839-.331H7.154a1.224,1.224,0,0,0-.839.331l-.449.427L6.3,55.8a.611.611,0,0,1,.023-.118L7.711,52.66,8.926,54.2a1.616,1.616,0,0,0-.238.83,1.72,1.72,0,0,0,1.256,1.645,1.841,1.841,0,0,0,2.017-.664,1.647,1.647,0,0,0-.077-2.033,1.85,1.85,0,0,0-2.062-.524L8.259,51.471l2-4.353H21.152V61.252Zm-4.4-6.784a.566.566,0,1,1-.594.565A.58.58,0,0,1,10.469,54.468ZM9.044,45.286l10.841-1.554a.566.566,0,0,1,.444.126.635.635,0,0,1,.23.494v1.635H8.579ZM5.116,55.7l-.441,4.617-2.25-2.822a1.077,1.077,0,0,1-.169-1.056l3.72-8.961a.592.592,0,0,1,.552-.358h2.44L7.442,50.434l-.653-.829a.612.612,0,0,0-.83-.112.548.548,0,0,0-.119.791l1.054,1.338L5.222,55.257a1.621,1.621,0,0,0-.106.442Zm4.76,14.033a3.4,3.4,0,1,1,0-6.784,3.4,3.4,0,1,1,0,6.784ZM17,66.905V64.644h3.562v2.261Zm3.562-3.392H17a1.161,1.161,0,0,0-1.186,1.131v1.131H14.582a4.537,4.537,0,0,0-2.687-3.529,4.937,4.937,0,0,0-4.565.283l-.846-1.2.669-.637H12.6l1.433,1.365a1.208,1.208,0,0,0,.839.331h8.063a.609.609,0,0,0,.419-.165l1.187-1.131h0l.419-.4H30.4L31.886,62.1l-.979.932a4.911,4.911,0,0,0-4.847-.944,4.566,4.566,0,0,0-3.086,3.687H21.745V64.644A1.161,1.161,0,0,0,20.559,63.513Zm7.122,6.219a3.4,3.4,0,1,1,3.561-3.392A3.478,3.478,0,0,1,27.68,69.732ZM35.4,60.686a.58.58,0,0,1-.593.565h-.595V57.294H34.8a.58.58,0,0,1,.593.565Z" transform="translate(-1 -42.596)"/>
      <path id="Path_6071" data-name="Path 6071" d="M359.895,248.516h1.781a.566.566,0,1,0,0-1.131h-1.781a.566.566,0,1,0,0,1.131Z" transform="translate(-334.402 -233.817)"/>
    </g>
  </g>
</svg>
