<svg xmlns="http://www.w3.org/2000/svg" width="28.915" height="28.915" viewBox="0 0 28.915 28.915">
  <g id="Group_1674" data-name="Group 1674" transform="translate(-921.902 -1578.835)">
    <path id="Path_12435" data-name="Path 12435" d="M443.958,158l-.943.2.681,3.193.813-.812Zm0,0" transform="translate(505.573 1430.349)" fill="#c7c7c5"/>
    <path id="Path_12436" data-name="Path 12436" d="M17.638,35.955,8,26.317,26.313,8l8.674.964.964,8.674Zm0,0" transform="translate(914.384 1571.313)" fill="#ffb531"/>
    <path id="Path_12437" data-name="Path 12437" d="M79.862,28.8,78.9,20.124l-2.239-.249c-2.5,12.33-15.45,18.232-21.933,20.412l6.823,6.823Zm0,0" transform="translate(870.473 1560.157)" fill="#ffa912"/>
    <path id="Path_12438" data-name="Path 12438" d="M393.928,56.968a.964.964,0,1,1-.964-.964A.964.964,0,0,1,393.928,56.968Zm0,0" transform="translate(553.516 1526.205)" fill="#e8770c"/>
    <g id="Group_367" data-name="Group 367" transform="translate(925.417 1594.446)">
      <path id="Path_12439" data-name="Path 12439" d="M58.352,262.284l3.132-3.132.681.681-3.132,3.132Zm0,0" transform="translate(-58.352 -259.152)" fill="#f98500"/>
      <path id="Path_12440" data-name="Path 12440" d="M83.141,287.081l3.132-3.132.681.682-3.132,3.132Zm0,0" transform="translate(-81.647 -282.455)" fill="#f98500"/>
      <path id="Path_12441" data-name="Path 12441" d="M107.941,311.882l3.132-3.132.681.681-3.132,3.132Zm0,0" transform="translate(-104.954 -305.762)" fill="#f98500"/>
      <path id="Path_12442" data-name="Path 12442" d="M132.742,336.683l3.132-3.132.681.681-3.132,3.132Zm0,0" transform="translate(-128.261 -329.069)" fill="#f98500"/>
      <path id="Path_12443" data-name="Path 12443" d="M157.543,361.484l3.132-3.132.681.681-3.132,3.132Zm0,0" transform="translate(-151.568 -352.376)" fill="#f98500"/>
    </g>
    <path id="Path_12444" data-name="Path 12444" d="M216,76.827l4.819-4.819,6.747,6.747-4.819,4.819Zm0,0" transform="translate(718.914 1511.165)" fill="#ffcb73"/>
    <path id="Path_12445" data-name="Path 12445" d="M357.965,372.523l-4.52-4.52L352,369.449l4.52,4.52a1.022,1.022,0,0,0,1.446-1.446Zm0,0" transform="translate(591.107 1233)" fill="#348fd9"/>
    <path id="Path_12446" data-name="Path 12446" d="M355.092,369.65,353.446,368,352,369.45l1.715,1.715A7.269,7.269,0,0,0,355.092,369.65Zm0,0" transform="translate(591.106 1232.999)" fill="#2d7dbf"/>
    <path id="Path_12447" data-name="Path 12447" d="M182.457,199.233A7.229,7.229,0,1,1,175.229,192,7.229,7.229,0,0,1,182.457,199.233Zm0,0" transform="translate(764.022 1398.397)" fill="#348fd9"/>
    <path id="Path_12448" data-name="Path 12448" d="M210.6,229.3a5.3,5.3,0,1,1-5.3-5.3A5.3,5.3,0,0,1,210.6,229.3Zm0,0" transform="translate(733.95 1368.325)" fill="#5ac6d4"/>
    <path id="Path_12449" data-name="Path 12449" d="M224.674,244.341A4.337,4.337,0,1,1,220.337,240,4.337,4.337,0,0,1,224.674,244.341Zm0,0" transform="translate(718.914 1353.289)" fill="#60d1e0"/>
    <path id="Path_12450" data-name="Path 12450" d="M258.41,251.377h-.964a.482.482,0,0,1-.482-.482v-.482a.482.482,0,0,1,.482-.482h.964a.482.482,0,0,1,.482.482h.964a1.446,1.446,0,0,0-1.446-1.446V248h-.964v.964A1.446,1.446,0,0,0,256,250.414v.482a1.446,1.446,0,0,0,1.446,1.446h.964a.482.482,0,0,1,.482.482v.482a.482.482,0,0,1-.482.482h-.964a.482.482,0,0,1-.482-.482H256a1.446,1.446,0,0,0,1.446,1.446v.964h.964v-.964a1.446,1.446,0,0,0,1.446-1.446v-.482A1.446,1.446,0,0,0,258.41,251.377Zm0,0" transform="translate(681.323 1345.771)" fill="#f35244"/>
    <path id="Path_12451" data-name="Path 12451" d="M19.566,18.606H16.192l.482,2.41L13.3,18.606H9.928A1.928,1.928,0,0,1,8,16.678V9.932A1.928,1.928,0,0,1,9.928,8h9.638a1.928,1.928,0,0,1,1.928,1.928v6.747A1.928,1.928,0,0,1,19.566,18.606Zm0,0" transform="translate(914.384 1571.313)" fill="#60d1e0"/>
    <path id="Path_12452" data-name="Path 12452" d="M27.815,12.234c-2.971,5.185-8.608,8.188-12.038,9.666a1.915,1.915,0,0,0,1.459.681H20.61l3.373,2.41-.482-2.41h3.373A1.928,1.928,0,0,0,28.8,20.654V13.907a1.919,1.919,0,0,0-.987-1.673Zm0,0" transform="translate(907.076 1567.338)" fill="#5ac6d4"/>
    <path id="Path_12453" data-name="Path 12453" d="M42.6,47.233H32.482A.482.482,0,0,1,32,46.751V40h.964v6.265H42.6Zm0,0" transform="translate(891.83 1541.241)" fill="#3fb7c7"/>
    <path id="Path_12454" data-name="Path 12454" d="M41.216,49.178a.482.482,0,0,1-.37-.173l-2-2.4-1.569,2.354a.482.482,0,0,1-.385.215.5.5,0,0,1-.4-.193l-1.062-1.413-1.06,1.413-.771-.578,1.446-1.928a.5.5,0,0,1,.771,0l1.037,1.383,1.55-2.325a.482.482,0,0,1,.771-.041l1.959,2.352L43.2,44.125l.842.467-2.41,4.337a.482.482,0,0,1-.376.246l-.045,0Zm0,0" transform="translate(890.325 1537.368)" fill="#f35244"/>
    <path id="Path_12455" data-name="Path 12455" d="M402.645,75.8l-.812.812.571,2.678a.664.664,0,1,1-1.312.2L399.428,68.2a.482.482,0,1,0-.953.142l1.66,11.277a1.628,1.628,0,1,0,3.21-.528Zm0,0" transform="translate(547.438 1515.134)" fill="#d6d6d4"/>
    <path id="Path_12456" data-name="Path 12456" d="M9.782,226.45a.482.482,0,0,0,.681,0l2.41-2.41-.681-.681-2.069,2.069-8.957-8.957,5.442-5.442-.681-.681L.144,216.13a.482.482,0,0,0,0,.681Zm0,0" transform="translate(921.9 1381.159)"/>
    <path id="Path_12457" data-name="Path 12457" d="M264.175,10.073,263.211,1.4a.482.482,0,0,0-.426-.426L254.111.009a.487.487,0,0,0-.394.138l-3.373,3.373.681.681,3.21-3.21,8.064.9.9,8.061L261.3,11.84l-.916-6.159a1.452,1.452,0,1,0-.969.037l.745,5.012L253.435,4a.482.482,0,0,0-.681,0l-2.41,2.41.681.681,2.069-2.069,6.065,6.065L258.054,12.2l.681.681,1.446-1.446a.466.466,0,0,0,.068-.1l.2,1.36-.952.952.681.681.447-.447.306,2.054a1.628,1.628,0,1,0,3.21-.528l-.887-4.156.779-.779a.482.482,0,0,0,.138-.394Zm-4.334-6.212a.482.482,0,1,1-.482.482A.482.482,0,0,1,259.841,3.861ZM263.2,15.6a.664.664,0,1,1-1.312.2l-.41-2.771.969-.969Zm0,0" transform="translate(686.639 1578.829)"/>
    <path id="Path_12458" data-name="Path 12458" d="M58.352,262.284l3.132-3.132.681.681-3.132,3.132Zm0,0" transform="translate(867.066 1335.294)"/>
    <path id="Path_12459" data-name="Path 12459" d="M83.137,287.081l3.132-3.132.682.681-3.132,3.132Zm0,0" transform="translate(843.774 1311.991)"/>
    <path id="Path_12460" data-name="Path 12460" d="M107.941,332.175l1.831-1.831.682.681-1.831,1.831Zm0,0" transform="translate(820.464 1268.391)"/>
    <path id="Path_12461" data-name="Path 12461" d="M132.742,365.247l1.3-1.3.681.681-1.3,1.3Zm0,0" transform="translate(797.156 1236.813)"/>
    <path id="Path_12462" data-name="Path 12462" d="M157.543,395.315l.964-.964.681.681-.964.964Zm0,0" transform="translate(773.85 1208.239)"/>
    <path id="Path_12463" data-name="Path 12463" d="M167.694,199.661a7.661,7.661,0,0,0,4.559-1.506l3.475,3.475a1.5,1.5,0,0,0,2.127-2.127l-3.556-3.556-.062.062a7.7,7.7,0,1,0-6.544,3.652Zm9.48.523a.54.54,0,1,1-.764.764L173,197.534a7.768,7.768,0,0,0,.732-.8Zm-9.48-14.981a6.747,6.747,0,1,1-6.747,6.747A6.747,6.747,0,0,1,167.694,185.2Zm0,0" transform="translate(771.557 1405.68)"/>
    <path id="Path_12464" data-name="Path 12464" d="M197.783,227.57A5.783,5.783,0,1,0,192,221.787,5.783,5.783,0,0,0,197.783,227.57Zm0-10.6a4.819,4.819,0,1,1-4.819,4.819A4.819,4.819,0,0,1,197.783,216.968Zm0,0" transform="translate(741.468 1375.843)"/>
    <path id="Path_12465" data-name="Path 12465" d="M258.41,253.787h-.964a.482.482,0,0,1-.482-.482H256a1.446,1.446,0,0,0,1.446,1.446v.964h.964v-.964a1.446,1.446,0,0,0,1.446-1.446v-.482a1.446,1.446,0,0,0-1.446-1.446h-.964a.482.482,0,0,1-.482-.482v-.482a.482.482,0,0,1,.482-.482h.964a.482.482,0,0,1,.482.482h.964a1.446,1.446,0,0,0-1.446-1.446V248h-.964v.964A1.446,1.446,0,0,0,256,250.414v.482a1.446,1.446,0,0,0,1.446,1.446h.964a.482.482,0,0,1,.482.482v.482A.482.482,0,0,1,258.41,253.787Zm0,0" transform="translate(681.323 1345.771)"/>
    <path id="Path_12466" data-name="Path 12466" d="M2.41,11.57H5.629l3.247,2.319a.48.48,0,0,0,.28.09.487.487,0,0,0,.262-.077.482.482,0,0,0,.211-.5L9.262,11.57h2.785a2.413,2.413,0,0,0,2.41-2.41V2.414A2.412,2.412,0,0,0,12.048,0H2.41A2.412,2.412,0,0,0,0,2.414V9.16a2.413,2.413,0,0,0,2.41,2.41ZM.964,2.414A1.446,1.446,0,0,1,2.41.968h9.638a1.446,1.446,0,0,1,1.446,1.446V9.16a1.446,1.446,0,0,1-1.446,1.446H8.674a.482.482,0,0,0-.472.578L8.443,12.4,6.062,10.7a.478.478,0,0,0-.279-.092H2.41A1.446,1.446,0,0,1,.964,9.16Zm0,0" transform="translate(921.902 1578.831)"/>
    <path id="Path_12467" data-name="Path 12467" d="M32.482,47.233H42.6v-.964H32.964V44.984l.964-1.285,1.06,1.413a.513.513,0,0,0,.4.193.482.482,0,0,0,.388-.215l1.569-2.354,2,2.4a.485.485,0,0,0,.371.173h.045a.482.482,0,0,0,.376-.246l2.41-4.337-.842-.467-2.068,3.722-1.959-2.352a.473.473,0,0,0-.4-.175.482.482,0,0,0-.375.214l-1.55,2.326-1.037-1.383a.5.5,0,0,0-.771,0l-.578.771V40H32v6.747a.482.482,0,0,0,.482.482Zm0,0" transform="translate(891.83 1541.241)"/>
  </g>
</svg>
