<svg id="Group_193" data-name="Group 193" xmlns="http://www.w3.org/2000/svg" width="68.643" height="71.795" viewBox="0 0 68.643 71.795">
  <path id="Path_6218" data-name="Path 6218" d="M81.18,65.5,79.723,52.356h.055v-9.3a20.062,20.062,0,1,0-40.123,0v9.3L38.2,65.5A9.541,9.541,0,0,0,47.68,76.091H71.7A9.541,9.541,0,0,0,81.18,65.5Z" transform="translate(-35.288 -20.584)" fill="#dc8758"/>
  <path id="Path_6219" data-name="Path 6219" d="M72.319,385.772H89.363V373.707c0-4.06-3.019-7.35-6.743-7.35H55.658c-3.724,0-6.743,3.291-6.743,7.35v12.605H71.778Z" transform="translate(-44.508 -314.518)" fill="#5f99d7"/>
  <path id="Path_6220" data-name="Path 6220" d="M177.51,385.772h17.044V373.707c0-4.06-3.019-7.35-6.743-7.35H171.868v18.948a1.007,1.007,0,0,0,1.007,1.007h4.095Z" transform="translate(-149.7 -314.518)" fill="#3c87d0"/>
  <path id="Path_6221" data-name="Path 6221" d="M197.262,65.483,195.8,52.34h.055v-9.3a20.266,20.266,0,0,0-20.266-20.266,20.482,20.482,0,0,0-2.252.125,20.268,20.268,0,0,1,18.014,20.141v9.3H191.3l1.457,13.143a9.541,9.541,0,0,1-9.483,10.592h4.5A9.541,9.541,0,0,0,197.262,65.483Z" transform="translate(-150.96 -20.568)" fill="#d77f4a"/>
  <path id="Path_6222" data-name="Path 6222" d="M142.722,253.336l-.775,13.85v2.478a6.785,6.785,0,1,0,13.57,0v-2.691l-.983-13.637H142.722Z" transform="translate(-124.101 -217.824)" fill="#ffb09e"/>
  <path id="Path_6223" data-name="Path 6223" d="M141.947,264.76a15.7,15.7,0,0,0,13.57-.213V250.5h-13.57Z" transform="translate(-124.101 -215.398)" fill="#ffa78f"/>
  <path id="Path_6224" data-name="Path 6224" d="M171.868,314.674V327.6a6.785,6.785,0,0,0,9.247-6.322v-2.691l-.355-4.922h-7.885A1.007,1.007,0,0,0,171.868,314.674Z" transform="translate(-149.7 -269.439)" fill="#ffa78f"/>
  <path id="Path_6225" data-name="Path 6225" d="M92.028,95.948a7.968,7.968,0,0,1-7.849-8.082V83.358a16.315,16.315,0,0,0-8.764,14.467v5.784a16.317,16.317,0,0,0,16.317,16.317h.111a16.317,16.317,0,0,0,16.317-16.317V97.825a16.5,16.5,0,0,0-.108-1.877Z" transform="translate(-67.18 -72.4)" fill="#ffcebf"/>
  <path id="Path_6226" data-name="Path 6226" d="M107.236,239.563h-2.482a1.116,1.116,0,1,0,0,2.232h2.482a1.116,1.116,0,1,0,0-2.232Z" transform="translate(-91.326 -206.04)" fill="#fe8f83"/>
  <path id="Path_6227" data-name="Path 6227" d="M244.81,239.563h-2.482a1.116,1.116,0,0,0,0,2.232h2.482a1.116,1.116,0,1,0,0-2.232Z" transform="translate(-209.027 -206.04)" fill="#fe8f83"/>
  <path id="Path_6228" data-name="Path 6228" d="M437.228,7.5h-3.057a.578.578,0,0,0-.578.578V29.853h4.213V8.078A.578.578,0,0,0,437.228,7.5Z" transform="translate(-373.617 -7.5)" fill="#9c9c9c"/>
  <path id="Path_6229" data-name="Path 6229" d="M444.616,7.5H441.75a.578.578,0,0,1,.578.578V29.853h2.866V8.078A.578.578,0,0,0,444.616,7.5Z" transform="translate(-380.596 -7.5)" fill="#838383"/>
  <path id="Path_6230" data-name="Path 6230" d="M411.744,215.261a6.355,6.355,0,0,0,6.151-6.351v-10.43h-12.3v10.43A6.355,6.355,0,0,0,411.744,215.261Z" transform="translate(-349.662 -170.893)" fill="#cecece"/>
  <path id="Path_6231" data-name="Path 6231" d="M411.743,127.036a6.355,6.355,0,0,0-6.151,6.351v3.97h12.3v-3.97A6.355,6.355,0,0,0,411.743,127.036Z" transform="translate(-349.661 -109.768)" fill="#acacac"/>
  <path id="Path_6232" data-name="Path 6232" d="M444.594,198.481v10.43a6.357,6.357,0,0,1-4.923,6.192,6.354,6.354,0,0,0,7.789-6.192v-10.43Z" transform="translate(-378.817 -170.893)" fill="#bfbfbf"/>
  <path id="Path_6233" data-name="Path 6233" d="M441.1,127a6.375,6.375,0,0,0-1.433.164,6.357,6.357,0,0,1,4.923,6.192v3.97h2.867v-3.97A6.356,6.356,0,0,0,441.1,127Z" transform="translate(-378.816 -109.737)" fill="#9c9c9c"/>
  <path id="Path_6234" data-name="Path 6234" d="M444.594,198.481v10.43a6.357,6.357,0,0,1-4.923,6.192,6.354,6.354,0,0,0,7.789-6.192v-10.43Z" transform="translate(-378.817 -170.893)" fill="#bfbfbf"/>
  <path id="Path_6235" data-name="Path 6235" d="M154.809,43.091c-.583-11.344-8.061-20.317-17.2-20.317a14.254,14.254,0,0,0-7.19,1.977v12.1a7.968,7.968,0,0,0,7.849,8.082h16.542Z" transform="translate(-114.238 -20.568)" fill="#dc8758"/>
  <g id="Group_192" data-name="Group 192" transform="translate(22.765 23.548)">
    <path id="Path_6236" data-name="Path 6236" d="M194.109,170.511h-3.685a16.5,16.5,0,0,1,.108,1.877v5.784A16.319,16.319,0,0,1,176,194.392a16.475,16.475,0,0,0,1.787.1h.111a16.317,16.317,0,0,0,16.317-16.317v-5.784A16.525,16.525,0,0,0,194.109,170.511Z" transform="translate(-176.001 -170.511)" fill="#ffb09e"/>
  </g>
  <path id="Path_6237" data-name="Path 6237" d="M129.3,95.948H117.259a7.968,7.968,0,0,1-7.849-8.082V83.358a16.381,16.381,0,0,0-4.5,3.476v1.85a7.968,7.968,0,0,0,7.849,8.082H129.3Z" transform="translate(-92.411 -72.4)" fill="#ffb09e"/>
  <path id="Path_6238" data-name="Path 6238" d="M154.809,43.091c-.583-11.344-8.061-20.317-17.2-20.317a14.254,14.254,0,0,0-7.19,1.977v12.1a7.968,7.968,0,0,0,7.849,8.082h16.542Z" transform="translate(-114.238 -20.568)" fill="#dc8758"/>
  <path id="Path_6239" data-name="Path 6239" d="M226.2,340.226V314.673a1.007,1.007,0,0,0-1.007-1.007H201.222a1.007,1.007,0,0,0-1.007,1.007v25.553a1.007,1.007,0,0,0,1.007,1.007H225.19A1.007,1.007,0,0,0,226.2,340.226Z" transform="translate(-173.952 -269.439)" fill="#d5e3f4"/>
  <path id="Path_6240" data-name="Path 6240" d="M351.692,313.667H347.6a1.007,1.007,0,0,1,1.007,1.007v25.552a1.007,1.007,0,0,1-1.007,1.007h4.095a1.007,1.007,0,0,0,1.007-1.007V314.674A1.007,1.007,0,0,0,351.692,313.667Z" transform="translate(-300.044 -269.439)" fill="#b3ceec"/>
  <path id="Path_6241" data-name="Path 6241" d="M307.5,161.9v-8.731a3.94,3.94,0,0,0-3.94-3.94h-2.693a1.6,1.6,0,0,0-1.6,1.6v13.41a1.6,1.6,0,0,0,1.6,1.6h2.693A3.94,3.94,0,0,0,307.5,161.9Z" transform="translate(-258.694 -128.758)" fill="#9c9c9c"/>
  <path id="Path_6242" data-name="Path 6242" d="M311.2,149.232h-3.1a1.6,1.6,0,0,0-.381.048,3.941,3.941,0,0,1,3.329,3.893V161.9a3.941,3.941,0,0,1-3.329,3.893,1.6,1.6,0,0,0,.381.047h3.1a3.94,3.94,0,0,0,3.94-3.94v-8.732A3.94,3.94,0,0,0,311.2,149.232Z" transform="translate(-265.922 -128.758)" fill="#838383"/>
  <path id="Path_6243" data-name="Path 6243" d="M25.451,165.844h-3.1a3.941,3.941,0,0,1-3.94-3.94v-8.731a3.941,3.941,0,0,1,3.94-3.94h3.1a1.6,1.6,0,0,1,1.6,1.6v13.41A1.6,1.6,0,0,1,25.451,165.844Z" transform="translate(-18.408 -128.758)" fill="#9c9c9c"/>
</svg>
