<svg id="Group_255" data-name="Group 255" xmlns="http://www.w3.org/2000/svg" width="62.015" height="63.233" viewBox="0 0 62.015 63.233">
  <g id="Group_251" data-name="Group 251">
    <path id="Path_12144" data-name="Path 12144" d="M53.769,117H20.939a8.679,8.679,0,0,1-8.679-8.679V69.192a8.679,8.679,0,0,1,8.679-8.679h32.83a8.679,8.679,0,0,1,8.679,8.679v39.129A8.679,8.679,0,0,1,53.769,117Z" transform="translate(-12.26 -53.768)" fill="#f4fbff"/>
    <path id="Path_12145" data-name="Path 12145" d="M25.068,117.005H20.941a8.679,8.679,0,0,1-8.68-8.68V69.2a8.679,8.679,0,0,1,8.68-8.679h4.127A8.678,8.678,0,0,0,16.389,69.2v39.128a8.679,8.679,0,0,0,8.679,8.68Z" transform="translate(-12.261 -53.772)" fill="#e4f6ff"/>
    <path id="Path_12146" data-name="Path 12146" d="M109.856,12.51a7.934,7.934,0,0,0-14.752,0H92.309a5.43,5.43,0,0,0,0,10.86h20.342a5.43,5.43,0,0,0,0-10.86Z" transform="translate(-77.385 -7.5)" fill="#ffe07d"/>
    <path id="Path_12147" data-name="Path 12147" d="M105.065,7.93a7.951,7.951,0,0,0-4.79,4.577h-2.8a5.43,5.43,0,0,0,0,10.86H92.307a5.43,5.43,0,1,1,0-10.86H95.1a7.937,7.937,0,0,1,9.964-4.577Z" transform="translate(-77.384 -7.497)" fill="#ffd064"/>
    <circle id="Ellipse_14" data-name="Ellipse 14" cx="3.247" cy="3.247" r="3.247" transform="translate(21.848 4.689)" fill="#365e7d"/>
  </g>
  <g id="Group_252" data-name="Group 252" transform="translate(7.211 21.579)">
    <path id="Path_12148" data-name="Path 12148" d="M77.732,189.128H72.165a3.227,3.227,0,0,1-3.227-3.227v-5.567a3.227,3.227,0,0,1,3.227-3.227h5.567a3.227,3.227,0,0,1,3.227,3.227V185.9A3.226,3.226,0,0,1,77.732,189.128Z" transform="translate(-68.938 -177.108)" fill="#b3e59f"/>
  </g>
  <g id="Group_253" data-name="Group 253" transform="translate(7.211 39.749)">
    <path id="Path_12149" data-name="Path 12149" d="M77.732,331.934H72.165a3.227,3.227,0,0,1-3.227-3.227v-5.567a3.227,3.227,0,0,1,3.227-3.227h5.567a3.227,3.227,0,0,1,3.227,3.227v5.567A3.226,3.226,0,0,1,77.732,331.934Z" transform="translate(-68.938 -319.914)" fill="#b3e59f"/>
  </g>
  <g id="Group_254" data-name="Group 254" transform="translate(30.636 6.595)">
    <path id="Path_12150" data-name="Path 12150" d="M396.29,145.255a3.1,3.1,0,0,0,4.357-.526l6.618-8.435a3.1,3.1,0,0,0-4.883-3.831l-6.618,8.435A3.1,3.1,0,0,0,396.29,145.255Z" transform="translate(-377.03 -122.121)" fill="#80b4fb"/>
    <path id="Path_12151" data-name="Path 12151" d="M260.884,302.5l-1.1,1.408a3.762,3.762,0,0,1-5.919-4.644l1.1-1.408,5.9-.511Z" transform="translate(-253.057 -267.065)" fill="#ffe07d"/>
    <path id="Path_12152" data-name="Path 12152" d="M255.4,303.865a3.79,3.79,0,0,0,.436,1.359,3.762,3.762,0,0,1-1.985-5.957l1.1-1.407,5.9-.512.008,2.026-3.582.31-1.1,1.407A3.756,3.756,0,0,0,255.4,303.865Z" transform="translate(-253.053 -267.065)" fill="#ffd064"/>
    <path id="Path_12153" data-name="Path 12153" d="M289.822,147.4l-15.858,20.212-5.919-4.644L283.875,142.8" transform="translate(-266.138 -132.177)" fill="#e27f83"/>
    <path id="Path_12154" data-name="Path 12154" d="M286.229,144.585,270.372,164.8l-2.326-1.825L283.875,142.8" transform="translate(-266.138 -132.177)" fill="#c8646d"/>
    <path id="Path_12155" data-name="Path 12155" d="M415.321,71.9l5.744-8.765a2.458,2.458,0,0,0-3.854-3.023l-7.146,7.664" transform="translate(-390.088 -59.333)" fill="#9dc6fb"/>
    <path id="Path_12156" data-name="Path 12156" d="M420.534,59.853c-.095-.074-.332.05-.646.317a9.176,9.176,0,0,0-1.1,1.17l-6.576,8.111-2.135-1.675,7.145-7.664a2.458,2.458,0,0,1,3.316-.258Z" transform="translate(-390.095 -59.329)" fill="#80b4fb"/>
    <path id="Path_12157" data-name="Path 12157" d="M394.246,127.063l-5.256-4.124a1.9,1.9,0,1,0-2.345,2.989l5.256,4.124a1.9,1.9,0,0,0,2.345-2.989Z" transform="translate(-369.013 -114.493)" fill="#9dc6fb"/>
    <path id="Path_12158" data-name="Path 12158" d="M388.54,126.708a1.894,1.894,0,0,0,.714,1.266l-2.614-2.051a1.9,1.9,0,0,1,2.345-2.989l2.614,2.051a1.9,1.9,0,0,0-3.059,1.723Z" transform="translate(-369.008 -114.488)" fill="#80b4fb"/>
  </g>
</svg>
