<svg id="Group_160" data-name="Group 160" xmlns="http://www.w3.org/2000/svg" width="66.075" height="66.075" viewBox="0 0 66.075 66.075">
  <g id="Group_148" data-name="Group 148" transform="translate(39.645 59.467)">
    <path id="Path_6155" data-name="Path 6155" d="M60.025,56h2.2a2.209,2.209,0,0,1,2.2,2.2v2.2a2.209,2.209,0,0,1-2.2,2.2H40.2a2.219,2.219,0,0,0,2.2-2.2,2.209,2.209,0,0,0-2.2-2.2H38V56H60.025Z" transform="translate(-38 -56)" fill="#fcd770"/>
  </g>
  <g id="Group_149" data-name="Group 149" transform="translate(44.05 46.252)">
    <path id="Path_6156" data-name="Path 6156" d="M59.62,44h2.2a2.209,2.209,0,0,1,2.2,2.2v2.2a2.209,2.209,0,0,1-2.2,2.2H44.2A2.209,2.209,0,0,1,42,48.4V46.2A2.209,2.209,0,0,1,44.2,44H59.62Z" transform="translate(-42 -44)" fill="#fcd770"/>
  </g>
  <g id="Group_150" data-name="Group 150" transform="translate(39.645 52.86)">
    <path id="Path_6157" data-name="Path 6157" d="M55.62,50h2.2a2.209,2.209,0,0,1,2.2,2.2v2.2a2.209,2.209,0,0,1-2.2,2.2H38V50H55.62Z" transform="translate(-38 -50)" fill="#ffc729"/>
  </g>
  <g id="Group_151" data-name="Group 151" transform="translate(4.405 4.405)">
    <path id="Path_6158" data-name="Path 6158" d="M6,6H41.24v6.607H6Z" transform="translate(-6 -6)" fill="#e6e9ed"/>
  </g>
  <g id="Group_152" data-name="Group 152" transform="translate(4.405 38.004)">
    <path id="Path_6159" data-name="Path 6159" d="M35.866,36.51a13.215,13.215,0,0,1-24.492,0A17.585,17.585,0,0,0,6,49.163V60.176H7.1a18.371,18.371,0,0,1,14.107-6.607h4.823a18.371,18.371,0,0,1,14.107,6.607h1.1V49.163A17.585,17.585,0,0,0,35.866,36.51Z" transform="translate(-6 -36.51)" fill="#e6e9ed"/>
  </g>
  <g id="Group_153" data-name="Group 153" transform="translate(5.506 55.062)">
    <path id="Path_6160" data-name="Path 6160" d="M40.037,58.607H7A18.371,18.371,0,0,1,21.107,52H25.93a18.371,18.371,0,0,1,14.107,6.607Z" transform="translate(-7 -52)" fill="#69d6f4"/>
  </g>
  <g id="Group_154" data-name="Group 154" transform="translate(4.405 11.012)">
    <path id="Path_6161" data-name="Path 6161" d="M41.24,12v4.4a17.585,17.585,0,0,1-5.374,12.653,13.215,13.215,0,0,0-24.492,0A17.585,17.585,0,0,1,6,16.4V12Z" transform="translate(-6 -12)" fill="#69d6f4"/>
  </g>
  <g id="Group_155" data-name="Group 155" transform="translate(0 0)">
    <path id="Path_6162" data-name="Path 6162" d="M43.847,2a2.209,2.209,0,0,1,2.2,2.2,2.219,2.219,0,0,1-2.2,2.2H4.2A2.209,2.209,0,0,1,2,4.2,2.219,2.219,0,0,1,4.2,2Z" transform="translate(-2 -2)" fill="#969faa"/>
  </g>
  <g id="Group_156" data-name="Group 156" transform="translate(0 61.67)">
    <path id="Path_6163" data-name="Path 6163" d="M43.847,58a2.209,2.209,0,0,1,2.2,2.2,2.219,2.219,0,0,1-2.2,2.2H4.2A2.209,2.209,0,0,1,2,60.2,2.219,2.219,0,0,1,4.2,58H43.847Z" transform="translate(-2 -58)" fill="#969faa"/>
  </g>
  <g id="Group_157" data-name="Group 157" transform="translate(41.847 19.822)">
    <path id="Path_6164" data-name="Path 6164" d="M62.113,27.984a11.728,11.728,0,0,1-9.6,18.446h-.947a11.729,11.729,0,0,1-9.449-18.446L47.709,20h8.81Z" transform="translate(-40 -20)" fill="#cf9e76"/>
  </g>
  <g id="Group_158" data-name="Group 158" transform="translate(46.252 8.81)">
    <path id="Path_6165" data-name="Path 6165" d="M59.417,11.1l-3.3,9.911H47.3L44,12.2l6.607-1.1,2.2,3.3,2.2-4.4Z" transform="translate(-44 -10)" fill="#d3a06c"/>
  </g>
  <g id="Group_159" data-name="Group 159" transform="translate(8.81 19.822)">
    <path id="Path_6166" data-name="Path 6166" d="M35.461,28.248a13.211,13.211,0,0,1,0,9.933,13.215,13.215,0,0,1-24.492,0,13.212,13.212,0,0,1,0-9.933,13.215,13.215,0,0,1,24.492,0Z" transform="translate(-10 -20)" fill="#ff826e"/>
  </g>
</svg>
