<svg xmlns="http://www.w3.org/2000/svg" width="80.674" height="80.085" viewBox="0 0 80.674 80.085">
  <g id="Group_1672" data-name="Group 1672" transform="translate(-131 -2209.952)">
    <g id="Group_139" data-name="Group 139" transform="translate(133.036 2234.445)">
      <g id="Group_134" data-name="Group 134" transform="translate(23.049 0)">
        <path id="Path_6106" data-name="Path 6106" d="M2401.966,2626.853a15.252,15.252,0,1,1-15.25-15.251A15.251,15.251,0,0,1,2401.966,2626.853Z" transform="translate(-2371.463 -2611.602)" fill="#fdc24e"/>
      </g>
      <g id="Group_135" data-name="Group 135" transform="translate(41.468 8.179)">
        <path id="Path_6107" data-name="Path 6107" d="M2498.607,2672.533c0,3.9-1.309,7.072-2.923,7.072s-2.926-3.168-2.926-7.072,1.31-7.072,2.926-7.072S2498.607,2668.629,2498.607,2672.533Z" transform="translate(-2492.758 -2665.461)" fill="#fff"/>
      </g>
      <g id="Group_136" data-name="Group 136" transform="translate(0 22.709)">
        <path id="Path_6108" data-name="Path 6108" d="M2258.079,2769.135a97.9,97.9,0,0,1,38.164-7.986l0,0a38.991,38.991,0,0,1-38.264,31.52h-.041a38.985,38.985,0,0,1-38.262-31.52,97.951,97.951,0,0,1,11.387.68Z" transform="translate(-2219.674 -2761.146)" fill="#73b05a"/>
      </g>
      <g id="Group_138" data-name="Group 138" transform="translate(11.381 11.208)">
        <g id="Group_137" data-name="Group 137">
          <path id="Path_6109" data-name="Path 6109" d="M2320.3,2704.328v-9.98l-7.73-8.936h-10.094l-7.852,8.411v8.848l10.227,1.787Z" transform="translate(-2294.622 -2685.412)" fill="#fff"/>
        </g>
      </g>
    </g>
    <g id="Group_140" data-name="Group 140" transform="translate(131 2209.952)">
      <path id="Path_6110" data-name="Path 6110" d="M2626.306,2703.074h-16.942a1.364,1.364,0,0,0,0,2.729h16.942a1.364,1.364,0,0,0,0-2.729Z" transform="translate(-2546.996 -2664.692)"/>
      <path id="Path_6111" data-name="Path 6111" d="M2216.022,2705.8a1.364,1.364,0,0,0,0-2.729h-8.392a1.364,1.364,0,0,0,0,2.729Z" transform="translate(-2206.266 -2664.692)"/>
      <path id="Path_6112" data-name="Path 6112" d="M2599.347,2622.926a1.363,1.363,0,0,0,1.282.9,1.38,1.38,0,0,0,.467-.082l15.918-5.792a1.364,1.364,0,1,0-.934-2.564l-15.917,5.792A1.364,1.364,0,0,0,2599.347,2622.926Z" transform="translate(-2539.587 -2590.248)"/>
      <path id="Path_6113" data-name="Path 6113" d="M2574.384,2551.221a1.366,1.366,0,0,0,1.923.168l12.978-10.891a1.365,1.365,0,1,0-1.754-2.091l-12.978,10.891A1.367,1.367,0,0,0,2574.384,2551.221Z" transform="translate(-2518.214 -2524.759)"/>
      <path id="Path_6114" data-name="Path 6114" d="M2536.151,2498.015a1.362,1.362,0,0,0,1.863-.5l8.472-14.671a1.364,1.364,0,0,0-2.363-1.364l-8.47,14.67A1.363,1.363,0,0,0,2536.151,2498.015Z" transform="translate(-2485.479 -2476.168)"/>
      <path id="Path_6115" data-name="Path 6115" d="M2489.25,2469.7a1.409,1.409,0,0,0,.239.02,1.366,1.366,0,0,0,1.342-1.128l2.942-16.683a1.365,1.365,0,0,0-2.688-.474l-2.942,16.683A1.367,1.367,0,0,0,2489.25,2469.7Z" transform="translate(-2445.322 -2450.312)"/>
      <path id="Path_6116" data-name="Path 6116" d="M2422.661,2469.722a1.42,1.42,0,0,0,.239-.02,1.367,1.367,0,0,0,1.107-1.582l-2.942-16.683a1.365,1.365,0,1,0-2.688.474l2.942,16.683A1.366,1.366,0,0,0,2422.661,2469.722Z" transform="translate(-2386.149 -2450.31)"/>
      <path id="Path_6117" data-name="Path 6117" d="M2343.245,2497.507a1.365,1.365,0,1,0,2.364-1.364l-8.47-14.673a1.365,1.365,0,1,0-2.364,1.365Z" transform="translate(-2315.105 -2476.159)"/>
      <path id="Path_6118" data-name="Path 6118" d="M2279.782,2551.389a1.365,1.365,0,1,0,1.754-2.091l-12.978-10.891a1.365,1.365,0,1,0-1.754,2.091Z" transform="translate(-2257.198 -2524.759)"/>
      <path id="Path_6119" data-name="Path 6119" d="M2222.646,2617.926,2236.6,2623a1.365,1.365,0,0,0,.934-2.565l-13.952-5.077a1.365,1.365,0,0,0-.934,2.565Z" transform="translate(-2219.397 -2590.228)"/>
      <path id="Path_6120" data-name="Path 6120" d="M2388.889,2610.012a1.362,1.362,0,0,0,1.927-.1,13.893,13.893,0,0,1,23.673,13.072,1.365,1.365,0,0,0,2.628.736,16.619,16.619,0,0,0-28.324-15.639A1.365,1.365,0,0,0,2388.889,2610.012Z" transform="translate(-2360.777 -2579.489)"/>
      <path id="Path_6121" data-name="Path 6121" d="M2288.621,2671.223h-.01a99.126,99.126,0,0,0-30.8,5.111v-3.115c1.923-1.125,2.923-4.6,2.923-8.056,0-4.191-1.473-8.434-4.287-8.434s-4.29,4.243-4.29,8.434c0,3.452,1,6.933,2.926,8.057v4.055q-2.32.851-4.605,1.821h0v-9.075a1.363,1.363,0,0,0-.333-.893l-7.724-8.929c-.022-.026-.046-.051-.07-.074h0l-.031-.03h0a1.361,1.361,0,0,0-.929-.37h-10.1a1.36,1.36,0,0,0-1,.434l-7.853,8.411a1.366,1.366,0,0,0-.367.93v2.255a99.862,99.862,0,0,0-10.014-.53h0a1.366,1.366,0,0,0-1.34,1.624,40.375,40.375,0,0,0,79.248,0,1.364,1.364,0,0,0-1.34-1.625Zm-32.2-11.768c.437.141,1.587,2.109,1.587,5.708,0,3.524-1.1,5.486-1.558,5.7-.457-.212-1.561-2.173-1.561-5.7C2254.886,2661.562,2256.037,2659.595,2256.417,2659.455Zm-15.038,3.716,6.365,7.358V2680a1.363,1.363,0,0,0,.839,1.259,95.193,95.193,0,0,1,23.8,14.339,37.775,37.775,0,0,1-9.287,4.905,97.148,97.148,0,0,0-28.073-21.2v-8.773Zm-16.582,7.761,7.5.385v7.191l-7.5-1.31Zm7.081-8.482h6.519l-5.333,6.174-6.632-.34Zm-15.293,19.335A94.344,94.344,0,0,1,2242.4,2701.9,37.733,37.733,0,0,1,2216.585,2681.785Zm33.729,20.956c-1.247,0-2.481-.068-3.7-.189a97.215,97.215,0,0,0-31.694-24.7,36.908,36.908,0,0,1-1.17-3.888c2.786.054,5.57.249,8.32.54v3.836a1.365,1.365,0,0,0,1.13,1.344l10.02,1.75a94.262,94.262,0,0,1,26.986,19.979A37.692,37.692,0,0,1,2250.314,2702.741Zm24.271-8.865a97.973,97.973,0,0,0-20.669-13.226,96,96,0,0,1,12.258-3.894c-.8,1.442-1.573,2.9-2.3,4.377a1.364,1.364,0,1,0,2.449,1.2c1.069-2.175,2.233-4.318,3.45-6.4,2.519-.516,5.057-.947,7.619-1.26a99.471,99.471,0,0,0-6.011,12.048,1.364,1.364,0,1,0,2.52,1.046,97,97,0,0,1,6.864-13.429c2.042-.177,4.091-.315,6.156-.365A37.454,37.454,0,0,1,2274.585,2693.876Z" transform="translate(-2210.017 -2625.384)"/>
      <path id="Path_6122" data-name="Path 6122" d="M2405.178,2774.138a1.365,1.365,0,0,0,1.365-1.365v-3.426a1.365,1.365,0,1,0-2.729,0v3.426A1.365,1.365,0,0,0,2405.178,2774.138Z" transform="translate(-2373.815 -2719.743)"/>
    </g>
  </g>
</svg>
