<svg xmlns="http://www.w3.org/2000/svg" width="33.356" height="30.894" viewBox="0 0 33.356 30.894">
  <g id="Group_1676" data-name="Group 1676" transform="translate(-395.133 -1574.06)">
    <g id="Group_119" data-name="Group 119" transform="translate(404.774 1590.992)">
      <path id="Path_6088" data-name="Path 6088" d="M151.018,286.5a2.97,2.97,0,0,1-3.039-2.9v-3.7l6.077,3.7A2.97,2.97,0,0,1,151.018,286.5Z" transform="translate(-147.979 -279.911)" fill="#756e78"/>
    </g>
    <g id="Group_120" data-name="Group 120" transform="translate(405.114 1593.875)">
      <path id="Path_6089" data-name="Path 6089" d="M157.594,326.339a3,3,0,0,1-3.005,2.467,3.144,3.144,0,0,1-1.4-.324,3.058,3.058,0,0,0,2.7,1.567,2.97,2.97,0,0,0,3.039-2.9Z" transform="translate(-153.193 -326.339)" fill="#665e66"/>
    </g>
    <g id="Group_121" data-name="Group 121" transform="translate(395.611 1598.739)">
      <path id="Path_6090" data-name="Path 6090" d="M10.374,407.535a2.951,2.951,0,0,1-2.682,2.877.314.314,0,0,1-.356-.3v-5.15a.314.314,0,0,1,.356-.3A2.951,2.951,0,0,1,10.374,407.535Z" transform="translate(-7.335 -404.655)" fill="#756e78"/>
    </g>
    <g id="Group_122" data-name="Group 122" transform="translate(395.611 1599.115)">
      <path id="Path_6091" data-name="Path 6091" d="M8.865,410.7a2.777,2.777,0,0,1,.353,1.355,2.9,2.9,0,0,1-1.883,2.68v1.044a.314.314,0,0,0,.356.3,2.951,2.951,0,0,0,2.682-2.877,2.874,2.874,0,0,0-1.509-2.5Z" transform="translate(-7.335 -410.703)" fill="#665e66"/>
    </g>
    <g id="Group_123" data-name="Group 123" transform="translate(401.874 1599.525)">
      <ellipse id="Ellipse_9" data-name="Ellipse 9" cx="1.992" cy="1.899" rx="1.992" ry="1.899" fill="#a298a5"/>
    </g>
    <g id="Group_124" data-name="Group 124" transform="translate(402.021 1599.665)">
      <path id="Path_6092" data-name="Path 6092" d="M108.315,419.561a1.816,1.816,0,0,1,.147.715,1.947,1.947,0,0,1-1.992,1.9,2.072,2.072,0,0,1-.75-.14,1.994,1.994,0,0,0,1.845,1.184,1.947,1.947,0,0,0,1.992-1.9A1.9,1.9,0,0,0,108.315,419.561Z" transform="translate(-105.719 -419.561)" fill="#8b818e"/>
    </g>
    <g id="Group_125" data-name="Group 125" transform="translate(406.599 1593.317)">
      <ellipse id="Ellipse_10" data-name="Ellipse 10" cx="1.213" cy="1.157" rx="1.213" ry="1.157" fill="#f9efda"/>
    </g>
    <g id="Group_126" data-name="Group 126" transform="translate(406.688 1593.402)">
      <path id="Path_6093" data-name="Path 6093" d="M178.941,318.717a1.1,1.1,0,0,1,.089.433,1.186,1.186,0,0,1-1.213,1.157,1.26,1.26,0,0,1-.455-.085,1.214,1.214,0,0,0,1.124.723,1.186,1.186,0,0,0,1.213-1.157A1.158,1.158,0,0,0,178.941,318.717Z" transform="translate(-177.362 -318.717)" fill="#f4ddb1"/>
    </g>
    <g id="Group_127" data-name="Group 127" transform="translate(420.873 1592.402)">
      <path id="Path_6094" data-name="Path 6094" d="M397.942,302.677l1.893,1.042a2.446,2.446,0,0,1,.963,3.427,2.7,2.7,0,0,1-3.595.918l-1.893-1.042a.415.415,0,0,1-.163-.581l2.185-3.609A.458.458,0,0,1,397.942,302.677Z" transform="translate(-395.087 -302.62)" fill="#ddeafb"/>
    </g>
    <g id="Group_128" data-name="Group 128" transform="translate(420.873 1593.898)">
      <path id="Path_6095" data-name="Path 6095" d="M400.377,326.707a2.4,2.4,0,0,1-.33,1.579,2.7,2.7,0,0,1-3.595.918l-1.058-.582-.248.41a.415.415,0,0,0,.163.581l1.893,1.042a2.7,2.7,0,0,0,3.595-.918A2.423,2.423,0,0,0,400.377,326.707Z" transform="translate(-395.086 -326.707)" fill="#cbe2ff"/>
    </g>
    <g id="Group_129" data-name="Group 129" transform="translate(415.958 1588.679)">
      <path id="Path_6096" data-name="Path 6096" d="M323.918,242.682l4.987,2.745a1.061,1.061,0,0,1,.418,1.486l-3.12,5.152a1.172,1.172,0,0,1-1.559.4l-4.987-2.745Z" transform="translate(-319.657 -242.682)" fill="#756e78"/>
    </g>
    <path id="Path_6097" data-name="Path 6097" d="M328.9,284.091l-.335-.185-3.219,5.316a.526.526,0,0,1-.7.179l-4.208-2.316-.786,1.3,4.987,2.745a1.172,1.172,0,0,0,1.559-.4l3.12-5.152A1.061,1.061,0,0,0,328.9,284.091Z" transform="translate(96.302 1307.334)" fill="#665e66"/>
    <g id="Group_130" data-name="Group 130" transform="translate(398.137 1581.138)">
      <path id="Path_6098" data-name="Path 6098" d="M63.5,137.99l-16.25-8.944a2.119,2.119,0,0,1-.835-2.969l2.92-4.822,20.2,11.118-2.92,4.822A2.342,2.342,0,0,1,63.5,137.99Z" transform="translate(-46.106 -121.254)" fill="#a298a5"/>
    </g>
    <path id="Path_6099" data-name="Path 6099" d="M67.68,206.9l-2.614,4.317a.851.851,0,0,1-1.132.289l-17.507-9.636q-.055-.031-.108-.064a2.123,2.123,0,0,0,.932,2.789l16.25,8.944a2.342,2.342,0,0,0,3.115-.8l2.92-4.822Z" transform="translate(352.026 1384.331)" fill="#8b818e"/>
    <g id="Group_131" data-name="Group 131" transform="translate(400.971 1576.824)">
      <path id="Path_6100" data-name="Path 6100" d="M108.4,68.264,90.322,58.316a1.334,1.334,0,0,1-.525-1.869L91.884,53a2.58,2.58,0,0,1,3.432-.877l20.937,11.524a.737.737,0,0,1-.245,1.381l-.735.134a10.206,10.206,0,0,0-4.853,2.311l-.762.66a1.118,1.118,0,0,1-1.262.129Z" transform="translate(-89.604 -51.803)" fill="#756e78"/>
    </g>
    <g id="Group_132" data-name="Group 132" transform="translate(400.971 1581.073)">
      <path id="Path_6101" data-name="Path 6101" d="M116.253,127.817l-.983-.541a10.206,10.206,0,0,0-4.851,2.31l-.762.66a1.118,1.118,0,0,1-1.262.129l-18.073-9.947a1.435,1.435,0,0,1-.287-.207l-.239.394a1.334,1.334,0,0,0,.525,1.869l18.073,9.947a1.118,1.118,0,0,0,1.262-.129l.762-.66a10.206,10.206,0,0,1,4.853-2.311l.735-.134A.737.737,0,0,0,116.253,127.817Z" transform="translate(-89.605 -120.221)" fill="#665e66"/>
    </g>
    <g id="Group_133" data-name="Group 133" transform="translate(395.133 1574.06)">
      <path id="Path_6102" data-name="Path 6102" d="M32.725,56.361l-2.331-1.283a.491.491,0,0,0-.653.167.444.444,0,0,0,.175.622l2.331,1.283a.285.285,0,0,1-.1.539l-.735.134a10.688,10.688,0,0,0-5.085,2.421l-.713.618a.632.632,0,0,1-.75.114l-12.26-6.748a.491.491,0,0,0-.653.167.444.444,0,0,0,.175.622l12.26,6.748a1.609,1.609,0,0,0,.518.178L23.07,64.978a1.8,1.8,0,0,1-2.394.611l-4.788-2.636h0L4.34,56.6A1.63,1.63,0,0,1,3.7,54.316L5.616,51.15a1.859,1.859,0,0,0,.7.668l3.929,2.163a.491.491,0,0,0,.653-.167.444.444,0,0,0-.175-.622L6.794,51.029a.914.914,0,0,1-.446-.554.87.87,0,0,1,.1-.692l2.087-3.446a2.1,2.1,0,0,1,2.779-.71l16.772,9.232a.491.491,0,0,0,.653-.167.444.444,0,0,0-.175-.622L11.787,44.837a3.1,3.1,0,0,0-2.269-.285A2.956,2.956,0,0,0,7.7,45.881L2.871,53.86a2.52,2.52,0,0,0,.991,3.527l5.3,2.918v2.471a3.3,3.3,0,0,0,1.409,2.682L9.563,67.294a2.566,2.566,0,0,0-.83-.137A2.442,2.442,0,0,0,6.3,69.127H3.941A3.447,3.447,0,0,0,.889,66.376a.823.823,0,0,0-.622.187A.745.745,0,0,0,0,67.13v5.15a.745.745,0,0,0,.267.567.824.824,0,0,0,.622.187,3.431,3.431,0,0,0,3.087-3H6.326a2.451,2.451,0,0,0,2.407,1.828A2.589,2.589,0,0,0,9.3,71.8a.455.455,0,0,0,.355-.548.479.479,0,0,0-.575-.339,1.589,1.589,0,0,1-.348.038,1.445,1.445,0,1,1,1.514-1.444,1.384,1.384,0,0,1-.048.362.454.454,0,0,0,.343.555.48.48,0,0,0,.582-.327,2.258,2.258,0,0,0,.078-.59,2.3,2.3,0,0,0-.818-1.749L11.408,65.9a3.648,3.648,0,0,0,1.271.228,3.533,3.533,0,0,0,3.259-2.094l4.26,2.345a2.807,2.807,0,0,0,2.055.258,2.711,2.711,0,0,0,1.333-.788l2.009,1.106a1.644,1.644,0,0,0,.794.2,1.612,1.612,0,0,0,1.379-.753,3.2,3.2,0,0,0,4.1-1.162,2.887,2.887,0,0,0-.992-3.963,1.471,1.471,0,0,0,.2-1.228,1.521,1.521,0,0,0-.743-.923l-.1-.058a9.912,9.912,0,0,1,1.366-.352c.735-.091,1.628-.28,1.743-1.115A1.175,1.175,0,0,0,32.725,56.361ZM.956,72.1v-4.8a2.423,2.423,0,0,1,0,4.8ZM12.24,62l1.169.644a.738.738,0,0,1-1.465-.081A.694.694,0,0,1,12.24,62Zm.439,3.218a2.506,2.506,0,0,1-2.561-2.441V60.831l1.265.7a1.57,1.57,0,0,0-.4,1.034,1.655,1.655,0,0,0,1.691,1.612,1.692,1.692,0,0,0,1.588-1.058l.833.458A2.564,2.564,0,0,1,12.679,65.217Zm18.357-.43a2.13,2.13,0,0,1-1.308.957,2.233,2.233,0,0,1-1.481-.129l2.146-3.544A2,2,0,0,1,31.036,64.787Zm-1.18-4.869a.6.6,0,0,1,.233.831l-3.145,5.194a.656.656,0,0,1-.872.223l-1.964-1.081,2.145-3.541a11.627,11.627,0,0,1,2.871-2.028Z" transform="translate(0 -42.146)"/>
      <ellipse id="Ellipse_11" data-name="Ellipse 11" cx="0.677" cy="0.645" rx="0.677" ry="0.645" transform="translate(20.912 12.816)"/>
      <ellipse id="Ellipse_12" data-name="Ellipse 12" cx="0.677" cy="0.645" rx="0.677" ry="0.645" transform="translate(23.079 13.955)"/>
      <path id="Path_6103" data-name="Path 6103" d="M263.382,54.415a.646.646,0,1,0-.677-.645A.662.662,0,0,0,263.382,54.415Z" transform="translate(-245.59 -50.277)"/>
      <path id="Path_6104" data-name="Path 6104" d="M330.371,14.217a.494.494,0,0,0,.669-.088,5.329,5.329,0,0,0,0-6.655.494.494,0,0,0-.669-.088.442.442,0,0,0-.093.638,4.448,4.448,0,0,1,0,5.555A.442.442,0,0,0,330.371,14.217Z" transform="translate(-308.671 -7.293)"/>
      <path id="Path_6105" data-name="Path 6105" d="M296.277,32.619a.494.494,0,0,0,.675-.026,2.941,2.941,0,0,0,0-4.109.5.5,0,0,0-.675-.026.441.441,0,0,0-.027.644,2.056,2.056,0,0,1,0,2.873A.441.441,0,0,0,296.277,32.619Z" transform="translate(-276.831 -27.031)"/>
    </g>
  </g>
</svg>
