<svg id="Group_56" data-name="Group 56" xmlns="http://www.w3.org/2000/svg" width="30.86" height="35.82" viewBox="0 0 30.86 35.82">
  <path id="Path_32" data-name="Path 32" d="M138.715,348.576a3.858,3.858,0,1,1-7.715,0c0-2.031,3.858-7.576,3.858-7.576S138.715,346.545,138.715,348.576Zm0,0" transform="translate(-121.665 -316.654)" fill="#c8f5ff"/>
  <path id="Path_33" data-name="Path 33" d="M19.258,184.826a4.525,4.525,0,0,1-4.629,4.413A4.525,4.525,0,0,1,10,184.826c0-2.438,4.629-8.826,4.629-8.826S19.258,182.389,19.258,184.826Zm0,0" transform="translate(-10 -163.79)" fill="#c8f5ff"/>
  <path id="Path_34" data-name="Path 34" d="M206.973,27.138a8.5,8.5,0,0,1-16.973,0C190,22.669,198.487,10,198.487,10S206.973,22.669,206.973,27.138Zm0,0" transform="translate(-176.113 -10)" fill="#c8f5ff"/>
</svg>
