<svg xmlns="http://www.w3.org/2000/svg" width="30.556" height="34.948" viewBox="0 0 30.556 34.948">
  <g id="Group_1673" data-name="Group 1673" transform="translate(-737.893 -1574.06)">
    <path id="Path_6076" data-name="Path 6076" d="M139.012,125.6c-1.708,1.628-1.494,4.914-1.494,4.914h-8.661s.183-3.285-1.494-4.914a8.333,8.333,0,0,1-3.05-6.367,8.854,8.854,0,0,1,17.689,0,8.376,8.376,0,0,1-2.989,6.367Z" transform="translate(620.008 1471.313)" fill="#ffd517"/>
    <g id="Group_117" data-name="Group 117" transform="translate(748.59 1603.629)">
      <path id="Path_6077" data-name="Path 6077" d="M189.492,407.585a.8.8,0,0,1-.823.785h-7.533a.8.8,0,0,1-.823-.785h0a.8.8,0,0,1,.823-.785h7.5a.829.829,0,0,1,.854.785Z" transform="translate(-180.312 -406.8)" fill="#e5e5e5"/>
      <path id="Path_6078" data-name="Path 6078" d="M202.035,452.385a.8.8,0,0,1-.823.785h-5.276a.8.8,0,0,1-.823-.785h0a.8.8,0,0,1,.823-.785h5.276a.8.8,0,0,1,.823.785Z" transform="translate(-193.984 -448.344)" fill="#e5e5e5"/>
    </g>
    <g id="Group_118" data-name="Group 118" transform="translate(737.893 1574.06)">
      <path id="Path_6079" data-name="Path 6079" d="M132.449,118.842a8.811,8.811,0,0,0,3.111-6.658,9.435,9.435,0,0,0-18.848,0,8.842,8.842,0,0,0,3.2,6.745c1.494,1.425,1.342,4.448,1.342,4.478a.675.675,0,0,0,.152.407.617.617,0,0,0,.427.174h8.631a.617.617,0,0,0,.427-.174.529.529,0,0,0,.152-.407c0-.029-.152-3.053,1.342-4.478C132.418,118.9,132.449,118.871,132.449,118.842Zm-.854-.727a.293.293,0,0,0-.122.145,7.207,7.207,0,0,0-1.586,4.652h-7.472c-.031-1.076-.274-3.4-1.708-4.768a7.756,7.756,0,0,1-2.836-5.931,8.274,8.274,0,0,1,16.53,0A7.667,7.667,0,0,1,131.595,118.115Z" transform="translate(-110.864 -95.699)" fill="#210b20"/>
      <path id="Path_6080" data-name="Path 6080" d="M233.291,135.2a.553.553,0,1,0,0,1.1,6.056,6.056,0,0,1,6.191,5.9.58.58,0,0,0,1.159,0A7.188,7.188,0,0,0,233.291,135.2Z" transform="translate(-218.02 -125.373)" fill="#210b20"/>
      <path id="Path_6081" data-name="Path 6081" d="M183.051,400.537a1.368,1.368,0,0,0-1.4-1.337h-7.533a1.339,1.339,0,1,0,0,2.675h7.5A1.376,1.376,0,0,0,183.051,400.537Zm-1.433.233h-7.5a.233.233,0,1,1,0-.465h7.5a.235.235,0,0,1,.244.233C181.892,400.683,181.77,400.77,181.617,400.77Z" transform="translate(-162.595 -370.183)" fill="#210b20"/>
      <path id="Path_6082" data-name="Path 6082" d="M194.191,444h-5.276a1.339,1.339,0,1,0,0,2.675h5.276a1.367,1.367,0,0,0,1.4-1.337A1.387,1.387,0,0,0,194.191,444Zm0,1.57h-5.276a.233.233,0,1,1,0-.465h5.276a.235.235,0,0,1,.244.233A.219.219,0,0,1,194.191,445.57Z" transform="translate(-176.266 -411.727)" fill="#210b20"/>
      <path id="Path_6083" data-name="Path 6083" d="M233.871,4.274V.552a.58.58,0,0,0-1.159,0V4.3a.566.566,0,0,0,.579.552A.59.59,0,0,0,233.871,4.274Z" transform="translate(-218.02)" fill="#210b20"/>
      <path id="Path_6084" data-name="Path 6084" d="M329.3,36.825a.6.6,0,0,0-.793.145l-2.165,3.111a.537.537,0,0,0,.152.756.61.61,0,0,0,.3.087.648.648,0,0,0,.488-.233l2.165-3.111A.541.541,0,0,0,329.3,36.825Z" transform="translate(-304.422 -34.063)" fill="#210b20"/>
      <path id="Path_6085" data-name="Path 6085" d="M117.515,38.764a.61.61,0,0,0,.3-.087.545.545,0,0,0,.183-.756l-2.1-3.14a.6.6,0,0,0-.793-.174.545.545,0,0,0-.183.756l2.1,3.14A.593.593,0,0,0,117.515,38.764Z" transform="translate(-109.136 -32.019)" fill="#210b20"/>
      <path id="Path_6086" data-name="Path 6086" d="M40.314,115.308l3.446,1.774a.471.471,0,0,0,.274.058.635.635,0,0,0,.518-.291.535.535,0,0,0-.244-.756l-3.446-1.774a.588.588,0,0,0-.793.233A.577.577,0,0,0,40.314,115.308Z" transform="translate(-40.017 -105.945)" fill="#210b20"/>
      <path id="Path_6087" data-name="Path 6087" d="M380.826,117.612a.928.928,0,0,0,.274-.058l3.446-1.774a.551.551,0,0,0,.244-.756.606.606,0,0,0-.793-.233l-3.446,1.774a.551.551,0,0,0-.244.756A.6.6,0,0,0,380.826,117.612Z" transform="translate(-354.301 -106.389)" fill="#210b20"/>
    </g>
  </g>
</svg>
