<svg id="hired" xmlns="http://www.w3.org/2000/svg" width="50.617" height="50.617" viewBox="0 0 50.617 50.617">
  <circle id="Ellipse_23" data-name="Ellipse 23" cx="8.945" cy="8.945" r="8.945" transform="translate(16.364 0.989)" fill="#fe6663"/>
  <path id="Path_12471" data-name="Path 12471" d="M20.756,417.17h-5.3A5.458,5.458,0,0,0,10,422.628v2.929H26.213v-2.929A5.458,5.458,0,0,0,20.756,417.17Z" transform="translate(-9.011 -375.928)" fill="#ffbc53"/>
  <path id="Path_12472" data-name="Path 12472" d="M67.459,417.17l-3.024,3.024-3.024-3.024Z" transform="translate(-55.34 -375.928)" fill="#fff"/>
  <path id="Path_12473" data-name="Path 12473" d="M58.636,321h4.418v2.193a2.059,2.059,0,0,1-2.059,2.059H55.92v-1.536A2.716,2.716,0,0,1,58.636,321Z" transform="translate(-50.392 -289.265)" fill="#5cc1ff"/>
  <path id="Path_12474" data-name="Path 12474" d="M63.054,364.008V365.7a3.567,3.567,0,0,1-3.567,3.567h0A3.567,3.567,0,0,1,55.92,365.7v-1.689Z" transform="translate(-50.392 -328.022)" fill="#ffcdac"/>
  <path id="Path_12475" data-name="Path 12475" d="M348.756,417.17h-5.3A5.458,5.458,0,0,0,338,422.628v2.929h16.213v-2.929A5.458,5.458,0,0,0,348.756,417.17Z" transform="translate(-304.585 -375.928)" fill="#7accff"/>
  <path id="Path_12476" data-name="Path 12476" d="M395.459,417.17l-3.024,3.024-3.024-3.024Z" transform="translate(-350.913 -375.928)" fill="#fff"/>
  <path id="Path_12477" data-name="Path 12477" d="M386.636,321h4.418v2.193a2.059,2.059,0,0,1-2.059,2.059H383.92v-1.536A2.716,2.716,0,0,1,386.636,321Z" transform="translate(-345.965 -289.265)" fill="#5cc1ff"/>
  <path id="Path_12478" data-name="Path 12478" d="M391.054,364.008V365.7a3.567,3.567,0,0,1-3.567,3.567h0a3.567,3.567,0,0,1-3.567-3.567v-1.689Z" transform="translate(-345.965 -328.022)" fill="#ffcdac"/>
  <path id="Path_12479" data-name="Path 12479" d="M159.17,386.706h-7.2a7.418,7.418,0,0,0-7.418,7.418V398.1h22.036v-3.981A7.418,7.418,0,0,0,159.17,386.706Z" transform="translate(-130.261 -348.476)" fill="#95e540"/>
  <path id="Path_12480" data-name="Path 12480" d="M222.646,386.706l-4.11,4.11-4.11-4.11Z" transform="translate(-193.227 -348.476)" fill="#fff"/>
  <path id="Path_12481" data-name="Path 12481" d="M210.655,256h6.005v2.98a2.8,2.8,0,0,1-2.8,2.8h-6.9v-2.088A3.691,3.691,0,0,1,210.655,256Z" transform="translate(-186.503 -230.691)" fill="#ffbc53"/>
  <path id="Path_12482" data-name="Path 12482" d="M216.659,314.453v2.3a4.848,4.848,0,0,1-4.848,4.848h0a4.848,4.848,0,0,1-4.848-4.848v-2.3Z" transform="translate(-186.502 -283.366)" fill="#ffcdac"/>
  <path id="Path_12483" data-name="Path 12483" d="M45.214,262.019a4.529,4.529,0,0,0,.864-2.664v-5.941a.989.989,0,0,0-.989-.989H40.671a3.708,3.708,0,0,0-3.7,3.7v3.225a4.53,4.53,0,0,0,.862,2.662,6.366,6.366,0,0,0-1.932.643,8.412,8.412,0,0,0-6.21-3.7l-.031-.007a5.812,5.812,0,0,0,1.489-3.889v-8.074a.989.989,0,0,0-.989-.989H24.151a4.685,4.685,0,0,0-4.679,4.679v4.383a5.812,5.812,0,0,0,1.489,3.889l-.031.007a8.411,8.411,0,0,0-6.21,3.7,6.373,6.373,0,0,0-1.932-.643,4.53,4.53,0,0,0,.863-2.663v-5.941a.989.989,0,0,0-.989-.989H8.244a3.708,3.708,0,0,0-3.7,3.7v3.225a4.529,4.529,0,0,0,.864,2.664A6.456,6.456,0,0,0,0,268.38v2.929a.989.989,0,0,0,.989.989h48.64a.989.989,0,0,0,.989-.989V268.38A6.456,6.456,0,0,0,45.214,262.019ZM44.1,259.355a2.578,2.578,0,0,1-5.157,0v-.7H43.03a3.03,3.03,0,0,0,1.071-.195v.895Zm-1.941,4.556-.637.637-.637-.637Zm-3.216-7.781a1.729,1.729,0,0,1,1.727-1.727H44.1v1.2a1.072,1.072,0,0,1-1.071,1.071H38.944Zm-17.494-2.374h5.908a3.765,3.765,0,0,0,1.81-.461v1.768a3.859,3.859,0,0,1-7.719,0v-1.307Zm5.583,7.143-1.723,1.723L23.585,260.9Zm-5.583-10.22a2.705,2.705,0,0,1,2.7-2.7h5.016v1.991a1.812,1.812,0,0,1-1.81,1.81H21.449v-1.1Zm-9.776,8.676a2.578,2.578,0,0,1-5.157,0v-.7H10.6a3.03,3.03,0,0,0,1.071-.195Zm-1.941,4.556-.637.637-.637-.637ZM6.517,256.13A1.729,1.729,0,0,1,8.244,254.4h3.43v1.2a1.072,1.072,0,0,1-1.071,1.071H6.517Zm-4.54,12.25a4.476,4.476,0,0,1,3.744-4.409L8.4,266.645a.989.989,0,0,0,1.4,0l2.676-2.676a4.421,4.421,0,0,1,1.351.452,8.366,8.366,0,0,0-.518,2.906v2.992H1.977Zm31.438,1.94H15.279v-1.977h6.437a.989.989,0,0,0,0-1.977H15.352a6.442,6.442,0,0,1,5.5-5.407l3.761,3.761a.989.989,0,0,0,1.4,0l3.761-3.761a6.438,6.438,0,0,1,5.569,6.37v2.992Zm15.225,0H37.315v-2.992a8.365,8.365,0,0,0-.519-2.907,4.409,4.409,0,0,1,1.35-.452l2.676,2.676a.989.989,0,0,0,1.4,0L44.9,263.97a4.476,4.476,0,0,1,3.744,4.409v1.94Z" transform="translate(0 -221.68)"/>
  <path id="Path_12484" data-name="Path 12484" d="M204.077,65.453a.989.989,0,0,0,0,1.4l2.8,2.8a.989.989,0,0,0,1.4,0l5.55-5.55a.989.989,0,0,0-1.4-1.4l-4.851,4.851-2.1-2.1A.989.989,0,0,0,204.077,65.453Z" transform="translate(-183.641 -56.239)"/>
  <path id="Path_12485" data-name="Path 12485" d="M165.455,26.9A9.935,9.935,0,0,0,169.5,7.889a.989.989,0,0,0-.805,1.806,7.956,7.956,0,1,1-6.508.015.989.989,0,0,0-.814-1.8A9.935,9.935,0,0,0,165.455,26.9Z" transform="translate(-140.147 -7.031)"/>
  <path id="Path_12486" data-name="Path 12486" d="M246.989,1.977h.031a.989.989,0,0,0,0-1.977h-.035a.989.989,0,0,0,0,1.977Z" transform="translate(-221.68)"/>
  <path id="Path_12487" data-name="Path 12487" d="M246.989,452a.989.989,0,1,0,.7.29A1,1,0,0,0,246.989,452Z" transform="translate(-221.68 -407.315)"/>
</svg>
