<svg xmlns="http://www.w3.org/2000/svg" width="28.072" height="31.724" viewBox="0 0 28.072 31.724">
  <g id="location" transform="translate(-11.405 -4.557)">
    <path id="Path_12426" data-name="Path 12426" d="M41.481,6.306a8.2,8.2,0,0,0-8.2,8.2c-.047,7.819,8.2,17.516,8.2,17.516s8.243-9.7,8.2-17.516A8.2,8.2,0,0,0,41.481,6.306Zm0,11.672A3.476,3.476,0,1,1,44.958,14.5,3.476,3.476,0,0,1,41.481,17.978Z" transform="translate(-16.042 -1.282)" fill="#f45858"/>
    <path id="Path_12427" data-name="Path 12427" d="M30.262,84.289h0a48.81,48.81,0,0,1-3.543,4.9,48.809,48.809,0,0,1-3.542-4.9h0c-5.776.583-10.027,2.557-10.027,4.9,0,2.8,6.075,5.078,13.569,5.078S40.289,92,40.289,89.192C40.289,86.846,36.038,84.872,30.262,84.289Z" transform="translate(-1.28 -58.456)" fill="#3ea2e5"/>
    <g id="Group_365" data-name="Group 365" transform="translate(11.405 4.557)">
      <path id="Path_12428" data-name="Path 12428" d="M29.77,25.452c.062-.1.123-.2.185-.3,2.772-4.59,4.167-8.6,4.147-11.932a8.662,8.662,0,0,0-.366-2.5.467.467,0,1,0-.894.269,7.73,7.73,0,0,1,.326,2.232c.04,6.633-6.161,14.814-7.729,16.776-1.567-1.962-7.769-10.143-7.729-16.779A7.73,7.73,0,0,1,29.88,6.893a.467.467,0,1,0,.537-.764,8.664,8.664,0,0,0-13.64,7.088c-.02,3.33,1.375,7.346,4.147,11.935.062.1.123.2.185.3a20.262,20.262,0,0,0-7.228,2.081.467.467,0,1,0,.46.813,19.921,19.921,0,0,1,7.318-2.017,49.435,49.435,0,0,0,3.424,4.71.466.466,0,0,0,.711,0,49.446,49.446,0,0,0,3.425-4.711c5.417.6,9.322,2.432,9.322,4.408,0,2.227-5.265,4.611-13.1,4.611s-13.1-2.384-13.1-4.611a1.9,1.9,0,0,1,.491-1.2.467.467,0,0,0-.72-.593,2.8,2.8,0,0,0-.7,1.791c0,3.109,6.164,5.545,14.036,5.545s14.036-2.435,14.036-5.545C39.475,28.26,35.606,26.174,29.77,25.452Z" transform="translate(-11.405 -4.557)"/>
      <path id="Path_12429" data-name="Path 12429" d="M34.753,106.932a.455.455,0,0,0,.06,0,.467.467,0,0,0,.059-.93,12.758,12.758,0,0,1-4.683-1.314.467.467,0,1,0-.489.8A13.618,13.618,0,0,0,34.753,106.932Z" transform="translate(-24.655 -77.921)"/>
      <path id="Path_12430" data-name="Path 12430" d="M59.356,111.55q.407,0,.806-.01a.467.467,0,0,0,.456-.478.462.462,0,0,0-.478-.456c-.651.015-1.329.011-1.99-.013a.467.467,0,0,0-.034.934C58.526,111.542,58.943,111.55,59.356,111.55Z" transform="translate(-45.321 -82.299)"/>
      <path id="Path_12431" data-name="Path 12431" d="M86.4,17.042a.467.467,0,1,0,.8-.487,8.737,8.737,0,0,0-.827-1.136.467.467,0,1,0-.708.609A7.8,7.8,0,0,1,86.4,17.042Z" transform="translate(-65.763 -12.401)"/>
      <path id="Path_12432" data-name="Path 12432" d="M49.222,26.185a3.943,3.943,0,1,0,3.943-3.943A3.943,3.943,0,0,0,49.222,26.185Zm6.953,0a3.009,3.009,0,1,1-3.009-3.009A3.009,3.009,0,0,1,56.175,26.185Z" transform="translate(-39.131 -17.523)"/>
    </g>
  </g>
</svg>
