<svg xmlns="http://www.w3.org/2000/svg" width="76.611" height="76.597" viewBox="0 0 76.611 76.597">
  <g id="review" transform="translate(0)">
    <path id="Path_79" data-name="Path 79" d="M258.336,199.526A21.422,21.422,0,1,0,243.589,219.9l6.652,6.652V216.3A21.4,21.4,0,0,0,258.336,199.526Z" transform="translate(-183.22 -151.447)" fill="#ff5d5d"/>
    <path id="Path_80" data-name="Path 80" d="M32.139,10.046A22.142,22.142,0,0,0,18.077,49.29v9.278L23.9,52.744a22.144,22.144,0,1,0,8.239-42.7Z" transform="translate(-8.502 -8.55)" fill="#62cd4d"/>
    <path id="Path_81" data-name="Path 81" d="M53.678,25.191a22.857,22.857,0,0,0-6.529.944,23.779,23.779,0,0,0,.127-2.451A23.387,23.387,0,0,0,44.692,12.93a1.5,1.5,0,1,0-2.664,1.363,20.419,20.419,0,0,1,2.255,9.392A20.656,20.656,0,0,1,15.955,42.852a1.5,1.5,0,0,0-1.615.331l-3.27,3.27V40.787a1.5,1.5,0,0,0-.545-1.155A20.646,20.646,0,0,1,33.938,5.788a1.5,1.5,0,1,0,1.5-2.592A23.639,23.639,0,0,0,8.079,41.479v8.585a1.5,1.5,0,0,0,2.554,1.058l5.142-5.142a23.691,23.691,0,0,0,15.051.222c-.053.639-.082,1.281-.082,1.922a22.721,22.721,0,0,0,2.286,9.994,1.5,1.5,0,1,0,2.692-1.306,19.75,19.75,0,0,1-1.987-8.688,20.12,20.12,0,0,1,.257-3.2A23.738,23.738,0,0,0,46.551,29.5,19.944,19.944,0,0,1,66.088,63.734a1.5,1.5,0,0,0-.564,1.17v6.633l-4.1-4.1a1.5,1.5,0,0,0-1.524-.364A20,20,0,0,1,45,66.087a1.5,1.5,0,1,0-1.3,2.693A23,23,0,0,0,59.946,70.19l6.016,6.016a1.5,1.5,0,0,0,2.554-1.058V65.611A22.933,22.933,0,0,0,53.678,25.191Z" transform="translate(0 -0.047)" fill="#3a3a3a"/>
    <path id="Path_82" data-name="Path 82" d="M250.517,413.64a1.5,1.5,0,0,0-2.106,2.125l.159.156a1.5,1.5,0,1,0,2.084-2.147Z" transform="translate(-210.864 -351.384)"/>
    <path id="Path_83" data-name="Path 83" d="M256.9,49.954a1.493,1.493,0,0,0,1.1.485,1.522,1.522,0,0,0,1.035-.408,1.523,1.523,0,1,0-2.143-.092Z" transform="translate(-218.097 -40.321)" fill="#3a3a3a"/>
    <path id="Path_84" data-name="Path 84" d="M99.966,121.024a1.5,1.5,0,1,0,.438,1.058A1.5,1.5,0,0,0,99.966,121.024Z" transform="translate(-82.836 -102.549)" fill="#3a3a3a"/>
    <path id="Path_85" data-name="Path 85" d="M201.087,123.139a1.5,1.5,0,1,0-1.058.438A1.507,1.507,0,0,0,201.087,123.139Z" transform="translate(-168.826 -102.549)" fill="#3a3a3a"/>
    <path id="Path_86" data-name="Path 86" d="M119.107,189.332a7.036,7.036,0,0,0,6.787-5.215,1.5,1.5,0,1,0-2.891-.772,4.032,4.032,0,0,1-7.793,0,1.5,1.5,0,1,0-2.891.772A7.036,7.036,0,0,0,119.107,189.332Z" transform="translate(-95.47 -154.973)" fill="#3a3a3a"/>
    <path id="Path_87" data-name="Path 87" d="M301.351,284.615a1.5,1.5,0,1,0,1.058.438A1.507,1.507,0,0,0,301.351,284.615Z" transform="translate(-254.987 -242.035)" fill="#3a3a3a"/>
    <path id="Path_88" data-name="Path 88" d="M400.16,287.17a1.5,1.5,0,1,0-1.058.438A1.507,1.507,0,0,0,400.16,287.17Z" transform="translate(-338.111 -242.035)" fill="#3a3a3a"/>
    <path id="Path_89" data-name="Path 89" d="M320.876,344.221a6.852,6.852,0,0,0-6.61,5.079,1.5,1.5,0,1,0,2.891.772,3.848,3.848,0,0,1,7.438,0,1.5,1.5,0,0,0,2.891-.772A6.851,6.851,0,0,0,320.876,344.221Z" transform="translate(-267.199 -292.722)" fill="#3a3a3a"/>
  </g>
</svg>
