<svg xmlns="http://www.w3.org/2000/svg" width="47.249" height="47.246" viewBox="0 0 47.249 47.246">
  <g id="round-table" transform="translate(0)">
    <path id="Path_6123" data-name="Path 6123" d="M87.16,87.123a18.487,18.487,0,1,1,0-26.143A18.489,18.489,0,0,1,87.16,87.123Zm0,0" transform="translate(-50.469 -50.437)" fill="#fecbaa"/>
    <path id="Path_6124" data-name="Path 6124" d="M115.752,85.031a18.5,18.5,0,0,0-3.877-2.969,18.491,18.491,0,0,1-24.776,26,18.488,18.488,0,1,0,28.654-23.027Zm0,0" transform="translate(-79.06 -74.489)" fill="#ffae85"/>
    <path id="Path_6125" data-name="Path 6125" d="M353.167,32.308l-4.625,4.624c-.248-.534-.525-1.056-.827-1.569a18.492,18.492,0,0,0-2.5-3.308q-.168-.179-.345-.355c-.046-.047-.093-.094-.142-.14-.165-.162-.334-.321-.5-.476a18.471,18.471,0,0,0-3.212-2.345q-.738-.422-1.5-.772l4.659-4.658Zm0,0" transform="translate(-308.177 -21.157)" fill="#4f7693"/>
    <path id="Path_6126" data-name="Path 6126" d="M304.533,21.651l-3.281,3.281a18.3,18.3,0,0,0-.909-2.348q-.373-.8-.827-1.568l1.752-1.752a1.932,1.932,0,0,0,0-2.731L297.333,12.6a1.932,1.932,0,0,0-2.732,0l-4.783,4.782a2,2,0,1,1-2.826-2.827l5.221-5.221A6.256,6.256,0,0,1,300.7,9q.183.159.358.332l3.474,3.474c.128.128.25.261.364.4A6.252,6.252,0,0,1,304.533,21.651Zm0,0" transform="translate(-259.977 -6.809)" fill="#ff84a7"/>
    <path id="Path_6127" data-name="Path 6127" d="M287,16.851l5.221-5.22a6.255,6.255,0,0,1,8.487-.332q.183.158.358.332l3.474,3.474c.128.128.25.261.364.4a6.216,6.216,0,0,1,1.362,2.875,6.245,6.245,0,0,0-1.362-5.171c-.114-.136-.237-.27-.364-.4l-3.474-3.474q-.174-.174-.358-.332a6.256,6.256,0,0,0-8.487.332L287,14.555a2,2,0,0,0-.221,2.562,2,2,0,0,1,.221-.265Zm0,0" transform="translate(-259.987 -6.81)" fill="#ef6085"/>
    <path id="Path_6128" data-name="Path 6128" d="M430.387,132.6a1.9,1.9,0,0,1-.185.217l-1.752,1.752q.435.736.795,1.5l.957-.957A1.93,1.93,0,0,0,430.387,132.6Zm0,0" transform="translate(-388.911 -120.365)" fill="#ef6085"/>
    <path id="Path_6129" data-name="Path 6129" d="M414.7,19.175l-1.283-1.283a2.063,2.063,0,0,1,0-2.917l2.518-2.518a2.063,2.063,0,0,1,2.917,0l1.283,1.283a2.062,2.062,0,0,1,0,2.917l-2.518,2.518a2.062,2.062,0,0,1-2.917,0Zm0,0" transform="translate(-374.72 -10.759)" fill="#fecbaa"/>
    <path id="Path_6130" data-name="Path 6130" d="M429.9,17.773l-1.284-1.283a2.062,2.062,0,0,1,0-2.917l1.115-1.115a2.063,2.063,0,0,1,2.917,0l1.283,1.283a2.062,2.062,0,0,1,0,2.917l-1.115,1.115A2.063,2.063,0,0,1,429.9,17.773Zm0,0" transform="translate(-388.513 -10.759)" fill="#c97f4c"/>
    <path id="Path_6131" data-name="Path 6131" d="M38.182,349.979l-4.659,4.657-9-9,4.625-4.625q.372.8.827,1.569a18.471,18.471,0,0,0,2.5,3.308q.168.179.344.355c.047.047.094.094.142.14.166.162.334.321.5.476a18.5,18.5,0,0,0,3.213,2.346c.491.281.992.54,1.5.773Zm0,0" transform="translate(-22.26 -309.542)" fill="#4f7693"/>
    <path id="Path_6132" data-name="Path 6132" d="M11.2,318.855l3.281-3.281a18.327,18.327,0,0,0,.909,2.348q.373.8.827,1.568l-1.752,1.752a1.932,1.932,0,0,0,0,2.732l3.934,3.934a1.931,1.931,0,0,0,2.732,0l4.782-4.782a2,2,0,1,1,2.827,2.826l-5.221,5.221a6.256,6.256,0,0,1-8.487.332q-.183-.158-.358-.332L11.2,327.7c-.128-.128-.25-.261-.364-.4a6.252,6.252,0,0,1,.364-8.447Zm0,0" transform="translate(-8.505 -286.452)" fill="#ff84a7"/>
    <path id="Path_6133" data-name="Path 6133" d="M53.142,391.936l-.174.174a1.932,1.932,0,0,0,0,2.732l3.934,3.934a1.932,1.932,0,0,0,2.732,0l4.782-4.782a2,2,0,0,1,3.246.619l.141-.141a2,2,0,0,0-2.827-2.827l-4.782,4.782a1.931,1.931,0,0,1-2.732,0l-3.934-3.934A1.925,1.925,0,0,1,53.142,391.936Zm0,0" transform="translate(-47.567 -354.972)" fill="#ef6085"/>
    <path id="Path_6134" data-name="Path 6134" d="M10.692,321.2l1.448-1.448a1.692,1.692,0,0,1,2.731.493l.011.023q.1.206.2.41l1.19-1.19q-.454-.768-.827-1.568a18.327,18.327,0,0,1-.909-2.348l-3.281,3.281a6.231,6.231,0,0,0-1.827,4.171,6.233,6.233,0,0,1,1.266-1.824Zm0,0" transform="translate(-8.556 -286.452)" fill="#ef6085"/>
    <path id="Path_6135" data-name="Path 6135" d="M19.374,414.817l1.283,1.283a2.062,2.062,0,0,1,0,2.917l-2.518,2.518a2.063,2.063,0,0,1-2.917,0l-1.283-1.283a2.063,2.063,0,0,1,0-2.917l2.518-2.518A2.063,2.063,0,0,1,19.374,414.817Zm0,0" transform="translate(-12.104 -375.988)" fill="#fecbaa"/>
    <path id="Path_6136" data-name="Path 6136" d="M17.988,429.832l1.284,1.283a2.063,2.063,0,0,1,0,2.917l-1.133,1.132a2.063,2.063,0,0,1-2.917,0l-1.283-1.283a2.063,2.063,0,0,1,0-2.917l1.132-1.132A2.063,2.063,0,0,1,17.988,429.832Zm0,0" transform="translate(-12.105 -389.618)" fill="#c97f4c"/>
    <path id="Path_6137" data-name="Path 6137" d="M354.675,344.1l-9,9-4.625-4.624q.8-.373,1.568-.827a18.407,18.407,0,0,0,3.309-2.5c.119-.112.238-.227.354-.344.047-.047.094-.093.141-.142.162-.165.321-.334.475-.5a18.453,18.453,0,0,0,2.346-3.212q.422-.738.773-1.5Zm0,0" transform="translate(-309.578 -308.113)" fill="#4f7693"/>
    <path id="Path_6138" data-name="Path 6138" d="M318.882,304.461l-3.281-3.28a18.362,18.362,0,0,0,2.348-.91q.8-.373,1.568-.827l1.752,1.752a1.932,1.932,0,0,0,2.732,0l3.934-3.934a1.932,1.932,0,0,0,0-2.732l-4.782-4.782a2,2,0,0,1,2.827-2.826l5.221,5.22a6.254,6.254,0,0,1,.332,8.486q-.158.184-.332.358l-3.474,3.474c-.128.128-.261.25-.4.364a6.253,6.253,0,0,1-8.447-.364Zm0,0" transform="translate(-286.477 -259.913)" fill="#83d9ff"/>
    <path id="Path_6139" data-name="Path 6139" d="M391.692,289.325a2,2,0,0,1,2.827,0l5.221,5.221a6.22,6.22,0,0,1,1.715,3.225,6.247,6.247,0,0,0-1.715-5.627l-5.221-5.22a2,2,0,0,0-3.009,2.614,2.007,2.007,0,0,1,.182-.212Zm0,0" transform="translate(-355.016 -259.914)" fill="#5fc9ed"/>
    <path id="Path_6140" data-name="Path 6140" d="M317.425,408.751a3.419,3.419,0,0,1,3.845.691,1.931,1.931,0,0,0,2.732,0l3.934-3.934a1.931,1.931,0,0,0,.146-2.567,2.014,2.014,0,0,1-.146.165L324,407.041a1.932,1.932,0,0,1-2.732,0l-1.752-1.752q-.768.454-1.568.827a18.362,18.362,0,0,1-2.348.91l1.757,1.756Zm0,0" transform="translate(-286.477 -365.757)" fill="#5fc9ed"/>
    <path id="Path_6141" data-name="Path 6141" d="M414.857,414.624l1.284-1.283a2.063,2.063,0,0,1,2.917,0l2.518,2.518a2.062,2.062,0,0,1,0,2.917l-1.284,1.283a2.063,2.063,0,0,1-2.917,0l-2.518-2.518A2.062,2.062,0,0,1,414.857,414.624Zm0,0" transform="translate(-376.025 -374.648)" fill="#fecbaa"/>
    <path id="Path_6142" data-name="Path 6142" d="M430.051,429.815l1.284-1.283a2.063,2.063,0,0,1,2.917,0l1.116,1.116a2.063,2.063,0,0,1,0,2.917l-1.284,1.283a2.063,2.063,0,0,1-2.917,0l-1.116-1.116A2.063,2.063,0,0,1,430.051,429.815Zm0,0" transform="translate(-389.817 -388.437)" fill="#c97f4c"/>
    <path id="Path_6143" data-name="Path 6143" d="M36.934,29.1q-.8.374-1.568.828a18.378,18.378,0,0,0-3.31,2.5c-.12.112-.238.227-.355.344-.047.047-.093.093-.14.142-.162.167-.321.335-.475.505a18.443,18.443,0,0,0-2.347,3.211q-.422.737-.772,1.5l-4.659-4.658,9-9Zm0,0" transform="translate(-21.158 -22.214)" fill="#4f7693"/>
    <path id="Path_6144" data-name="Path 6144" d="M21.654,11.161l3.281,3.281a18.312,18.312,0,0,0-2.349.909q-.8.373-1.568.827l-1.752-1.752a1.932,1.932,0,0,0-2.732,0L12.6,18.36a1.932,1.932,0,0,0,0,2.731l4.782,4.782A2,2,0,1,1,14.556,28.7L9.335,23.479A6.254,6.254,0,0,1,9,14.993c.106-.122.216-.242.332-.358l3.474-3.474c.128-.128.261-.25.4-.364a6.254,6.254,0,0,1,8.447.364Zm0,0" transform="translate(-6.811 -8.469)" fill="#83d9ff"/>
    <path id="Path_6145" data-name="Path 6145" d="M57.186,134.307a1.947,1.947,0,0,1-.21-.252,1.93,1.93,0,0,0,.21,2.479l4.782,4.782a2.013,2.013,0,0,1,.246.3,2,2,0,0,0-.246-2.527Zm0,0" transform="translate(-51.396 -121.684)" fill="#5fc9ed"/>
    <path id="Path_6146" data-name="Path 6146" d="M9.007,17.22q.158-.184.332-.358l3.474-3.474c.128-.128.261-.25.4-.364a6.254,6.254,0,0,1,8.448.364l1.647,1.647q.806-.336,1.633-.594l-3.281-3.281a6.254,6.254,0,0,0-8.447-.364c-.136.114-.27.236-.4.364L9.339,14.635c-.116.116-.226.235-.332.358a6.248,6.248,0,0,0-1.4,5.179,6.22,6.22,0,0,1,1.4-2.952Zm0,0" transform="translate(-6.815 -8.468)" fill="#5fc9ed"/>
    <path id="Path_6147" data-name="Path 6147" d="M19.18,19.331,17.9,20.614a2.063,2.063,0,0,1-2.917,0L12.461,18.1a2.063,2.063,0,0,1,0-2.917L13.745,13.9a2.062,2.062,0,0,1,2.917,0l2.518,2.518a2.063,2.063,0,0,1,0,2.917Zm0,0" transform="translate(-10.763 -12.065)" fill="#fecbaa"/>
    <path id="Path_6148" data-name="Path 6148" d="M17.565,17.718,16.281,19a2.063,2.063,0,0,1-2.917,0l-.906-.905a2.063,2.063,0,0,1,0-2.917L13.742,13.9a2.062,2.062,0,0,1,2.917,0l.906.905a2.063,2.063,0,0,1,0,2.917Zm0,0" transform="translate(-10.761 -12.065)" fill="#c97f4c"/>
    <path id="Path_6149" data-name="Path 6149" d="M128.988,291.569l-3.4,3.011a.608.608,0,0,1-.857-.052l-1.342-1.514-.921-1.039-1.415-1.6a.606.606,0,0,1,.052-.856l3.4-3.011a.606.606,0,0,1,.856.052l1.387,1.563.921,1.04,1.37,1.545A.608.608,0,0,1,128.988,291.569Zm0,0" transform="translate(-109.747 -259.933)" fill="#fff"/>
    <path id="Path_6150" data-name="Path 6150" d="M297.357,142.435l-4.872,4.319a.713.713,0,0,1-1.006-.061l-3.537-3.989A.713.713,0,0,1,288,141.7l4.873-4.319a.712.712,0,0,1,1.006.061l3.537,3.989a.713.713,0,0,1-.061,1.006Zm0,0" transform="translate(-261.207 -124.538)" fill="#fff"/>
    <path id="Path_6151" data-name="Path 6151" d="M47.678,245.967a6.946,6.946,0,0,0-.763-8.917l-3.088-3.088a19.129,19.129,0,0,0,.554-7.165.692.692,0,1,0-1.376.153,17.75,17.75,0,0,1-.322,5.869l-.991-.991a2.691,2.691,0,1,0-3.806,3.806l2.6,2.6a17.822,17.822,0,0,1-19.053,8.056l.992-.992a2.691,2.691,0,0,0-3.806-3.8l-2.6,2.6a17.929,17.929,0,0,1-5.985-6.056c-.007-.015-.013-.03-.021-.044-.293-.5-.561-1-.8-1.511a17.576,17.576,0,0,1-.875-2.258.706.706,0,0,0-.04-.1,17.77,17.77,0,0,1-.7-6.818.692.692,0,0,0-1.378-.125,19.137,19.137,0,0,0,.671,7.057l-2.98,2.98a6.943,6.943,0,0,0-.793,8.874l-.069.069a2.754,2.754,0,0,0,0,3.9l1.283,1.283a2.757,2.757,0,0,0,3.9,0l.062-.062a6.9,6.9,0,0,0,4,1.272,7.042,7.042,0,0,0,1.28-.118.692.692,0,0,0-.252-1.361,5.54,5.54,0,0,1-4.026-.791l1.458-1.458a2.737,2.737,0,0,0,.724-1.274,2.627,2.627,0,0,0,3.351-.3l1.793-1.793,0,0,2.985-2.985a1.31,1.31,0,0,1,1.849,0,1.307,1.307,0,0,1,0,1.847L19.6,246.165l-.008.008-3.368,3.368a5.664,5.664,0,0,1-.584.509.692.692,0,1,0,.835,1.1,6.977,6.977,0,0,0,.728-.634l3.087-3.086a19.168,19.168,0,0,0,10.331-.08l2.993,2.994a6.926,6.926,0,0,0,4.632,2.029q.141.006.282.006a6.917,6.917,0,0,0,3.962-1.243l.07.07a2.758,2.758,0,0,0,3.9,0l1.283-1.283a2.754,2.754,0,0,0,0-3.9ZM3.261,241.909A5.545,5.545,0,0,1,4.886,238.2l2.49-2.489a19.057,19.057,0,0,0,1.171,2.525L7.173,239.61a2.625,2.625,0,0,0-.327,3.314,2.739,2.739,0,0,0-1.283.724L4.113,245.1a5.541,5.541,0,0,1-.851-3.19Zm6.5,5.94L7.752,249.86h0l-.505.505a1.372,1.372,0,0,1-1.938,0l-1.283-1.283a1.37,1.37,0,0,1,0-1.938l.495-.495.005-.005,2.018-2.018a1.371,1.371,0,0,1,1.934,0L9.7,245.849l.062.062a1.371,1.371,0,0,1,0,1.938Zm4.075-1.574a1.238,1.238,0,0,1-1.753,0l-1.337-1.336-.007-.007-.6-.6-.686-.685,0,0-1.3-1.3a1.238,1.238,0,0,1,0-1.753l1.136-1.136a19.287,19.287,0,0,0,2.142,2.693l-.356.356a.692.692,0,0,0,.979.979l.367-.367a19.213,19.213,0,0,0,2.594,1.986Zm25.028-13.468a1.308,1.308,0,0,1,1.848,0l5.221,5.222a5.591,5.591,0,0,1,.745,6.941l-1.458-1.458a2.741,2.741,0,0,0-1.274-.722,2.623,2.623,0,0,0-.3-3.352l-4.783-4.782a1.309,1.309,0,0,1,0-1.849Zm-.331,10.013.36.36a.692.692,0,0,0,.979-.979l-.373-.373a19.262,19.262,0,0,0,1.988-2.592l1.18,1.179a1.239,1.239,0,0,1,0,1.753l-1.34,1.34,0,0L40.043,244.8l0,0-1.3,1.3a1.242,1.242,0,0,1-1.753,0l-1.144-1.144a19.175,19.175,0,0,0,2.7-2.138Zm-.233,8.173a5.546,5.546,0,0,1-3.708-1.625l-2.5-2.5c.464-.174.921-.367,1.368-.576.389-.181.777-.38,1.16-.591L36,247.081a2.628,2.628,0,0,0,3.312.327,2.739,2.739,0,0,0,.726,1.283l1.45,1.449a5.55,5.55,0,0,1-3.19.852Zm8.458-2.046-1.284,1.283a1.372,1.372,0,0,1-1.938,0l-2.518-2.518a1.37,1.37,0,0,1,0-1.936l1.287-1.287a1.372,1.372,0,0,1,1.936,0l2.024,2.024h0l.493.493a1.37,1.37,0,0,1,0,1.938Zm0,0" transform="translate(-1.7 -205.309)"/>
    <path id="Path_6152" data-name="Path 6152" d="M7.258,20.72a2.691,2.691,0,1,0,3.8-3.806L8.45,14.3a17.842,17.842,0,0,1,2.385-3.066.747.747,0,0,0,.057-.051.693.693,0,0,0,.062-.072l.082-.083a17.865,17.865,0,0,1,3.422-2.676.7.7,0,0,0,.1-.05c.492-.291,1-.559,1.509-.8a17.711,17.711,0,0,1,2.259-.875.68.68,0,0,0,.115-.049,17.781,17.781,0,0,1,9.086-.333l-1,1a2.69,2.69,0,1,0,3.8,3.8l2.609-2.608a17.936,17.936,0,0,1,6.111,6.292A25.96,25.96,0,0,1,40.6,18.251a.68.68,0,0,0,.047.149v0c.139.46.415.411.632.411h0a.692.692,0,0,0,.489-.2l3.281-3.28a6.944,6.944,0,0,0,.793-8.875l.069-.069a2.755,2.755,0,0,0,0-3.9L44.625,1.207a2.758,2.758,0,0,0-3.9,0l-.062.062a6.949,6.949,0,0,0-8.919.764L28.673,5.109a19.163,19.163,0,0,0-10.362.071L15.333,2.2A6.946,6.946,0,0,0,6.458,1.41l-.069-.07a2.758,2.758,0,0,0-3.9,0L1.21,2.623a2.754,2.754,0,0,0,0,3.9l.062.062A6.946,6.946,0,0,0,2.036,15.5ZM38.183,7.592l.028.029L40.8,10.21a1.239,1.239,0,0,1,0,1.753L39.664,13.1a19.3,19.3,0,0,0-2.14-2.7l.356-.355a.692.692,0,1,0-.979-.979l-.366.366a19.2,19.2,0,0,0-2.591-1.989l1.171-1.171a1.242,1.242,0,0,1,1.754,0Zm7.51,3.051a5.542,5.542,0,0,1-1.625,3.708L41.56,16.858a24.8,24.8,0,0,0-1.16-2.535l1.381-1.381a2.625,2.625,0,0,0,.327-3.314A2.738,2.738,0,0,0,43.391,8.9l1.45-1.45a5.539,5.539,0,0,1,.852,3.19ZM42.677,1.785a1.366,1.366,0,0,1,.969.4L44.93,3.469a1.371,1.371,0,0,1,0,1.938l-.5.5,0,0-2.01,2.01a1.372,1.372,0,0,1-1.938,0L39.191,6.642a1.372,1.372,0,0,1,0-1.938l2.518-2.518a1.364,1.364,0,0,1,.969-.4Zm-9.95,1.227a5.592,5.592,0,0,1,6.942-.745L38.212,3.725A2.736,2.736,0,0,0,37.489,5a2.628,2.628,0,0,0-3.353.3l-4.782,4.782a1.308,1.308,0,0,1-1.848,0,1.305,1.305,0,0,1,0-1.847ZM6.28,12.132a1.239,1.239,0,0,1,0-1.753l3.934-3.934a1.241,1.241,0,0,1,1.753,0l1.13,1.13a19.3,19.3,0,0,0-2.7,2.141l-.349-.349a.692.692,0,1,0-.979.979l.36.359A19.183,19.183,0,0,0,7.448,13.3ZM10.646,1.556a5.544,5.544,0,0,1,3.709,1.625l2.487,2.487a19.136,19.136,0,0,0-2.526,1.169l-1.37-1.37a2.628,2.628,0,0,0-3.313-.326,2.736,2.736,0,0,0-.727-1.284l-1.45-1.45a5.542,5.542,0,0,1,3.19-.852ZM2.189,3.6,3.472,2.319a1.373,1.373,0,0,1,1.938,0l.5.5.008.007L7.928,4.836a1.371,1.371,0,0,1,0,1.938L6.645,8.058a1.372,1.372,0,0,1-1.938,0L2.189,5.54a1.37,1.37,0,0,1,0-1.938ZM2.27,7.579,3.728,9.037A2.74,2.74,0,0,0,5,9.759a2.623,2.623,0,0,0,.3,3.352l4.782,4.782a1.307,1.307,0,0,1-1.847,1.848L3.014,14.52a5.589,5.589,0,0,1-.744-6.94Zm0,0" transform="translate(-0.001 0.001)"/>
    <path id="Path_6153" data-name="Path 6153" d="M117.248,279.192l-3.4,3.011a1.3,1.3,0,0,0-.111,1.834l1.872,2.111.006.007.005,0,1.8,2.025a1.3,1.3,0,0,0,1.833.11l3.4-3.011a1.3,1.3,0,0,0,.111-1.834l-3.677-4.148A1.3,1.3,0,0,0,117.248,279.192Zm.854,1.092,1.334,1.505-3.249,2.922-1.355-1.529Zm.295,6.919-1.291-1.456,3.248-2.922,1.312,1.479Zm0,0" transform="translate(-102.948 -253.131)"/>
    <path id="Path_6154" data-name="Path 6154" d="M285.607,130.06l-4.873,4.319a1.4,1.4,0,0,0-.119,1.983l3.537,3.99a1.4,1.4,0,0,0,.967.47l.086,0a1.394,1.394,0,0,0,.93-.354l4.873-4.319a1.4,1.4,0,0,0,.119-1.983l-3.537-3.989A1.407,1.407,0,0,0,285.607,130.06ZM290.1,135.1a.016.016,0,0,1-.007.014h0l-4.873,4.319a.015.015,0,0,1-.015.005.019.019,0,0,1-.014-.007l-3.537-3.99a.018.018,0,0,1-.005-.015.02.02,0,0,1,.007-.014l4.873-4.319a.021.021,0,0,1,.014-.005.02.02,0,0,1,.016.007l3.537,3.99A.017.017,0,0,1,290.1,135.1Zm0,0" transform="translate(-254.399 -117.737)"/>
  </g>
</svg>
